<?xml version="1.0" encoding="utf-8"?>
<!-- Generator: Adobe Illustrator 22.1.0, SVG Export Plug-In . SVG Version: 6.00 Build 0)  -->
<svg version="1.1" id="Layer_1" xmlns="http://www.w3.org/2000/svg" xmlns:xlink="http://www.w3.org/1999/xlink" x="0px" y="0px"
	 viewBox="0 0 972.6 377.4" style="enable-background:new 0 0 972.6 377.4;" xml:space="preserve">
<style type="text/css">
	.st0{fill:#FFFFFF;}
</style>
<g>
	<path class="st0" d="M722,187.7"/>
</g>
<g>
	<g>
		<path class="st0" d="M781,371.4c-17.7,0-35.4-6.7-48.8-20.2L617.5,236.5c-26.9-26.9-26.9-70.8,0-97.7L732.1,24.2
			C745.2,11.2,762.5,4,781,4c18.5,0,35.8,7.2,48.8,20.2l114.6,114.6c26.9,26.9,26.9,70.8,0,97.7L829.8,351.2
			C816.3,364.6,798.7,371.4,781,371.4z M781,54c-5.1,0-9.9,2-13.5,5.6L652.9,174.2c-7.4,7.4-7.4,19.5,0,27l114.6,114.6
			c7.4,7.4,19.5,7.4,27,0l114.6-114.6c7.4-7.4,7.4-19.5,0-27L794.5,59.6C790.8,56,786.1,54,781,54z"/>
	</g>
	<g>
		<polygon class="st0" points="781,270.1 745.6,234.7 792.6,187.7 744.8,139.9 780.2,104.5 863.3,187.7 		"/>
	</g>
	<g>
		<path class="st0" d="M128.9,182.7h-24.7v-47.4c0-7-3.4-10.5-10.3-10.5c-5.6,0-10.3,2.5-14,7.6v50.3H55v-47.4
			c0-7-3.4-10.5-10.3-10.5c-5.2,0-9.8,2.5-13.9,7.6v50.3H6v-77.9h24.8v9.5c2-2.7,5.4-5.3,10.2-7.7c4.7-2.5,9.9-3.7,15.5-3.7
			c11.5,0,18.9,4.6,22.1,13.9c2.5-3.8,6.2-7,11-9.8c4.9-2.7,10.2-4.1,15.9-4.1c7.4,0,13.2,2,17.3,5.9c4.1,3.9,6.1,9.8,6.1,17.5
			V182.7z"/>
		<path class="st0" d="M181.3,184.6c-12.8,0-23.1-4-30.8-11.9c-7.7-8-11.6-17.6-11.6-29c0-11.4,3.9-21,11.6-28.9
			c7.7-7.9,18-11.9,30.8-11.9c12.9,0,23.2,4,31,11.9c7.7,7.9,11.6,17.6,11.6,28.9c0,11.4-3.9,21.1-11.6,29
			C204.5,180.7,194.2,184.6,181.3,184.6z M169,157.3c3,3.6,7.1,5.4,12.3,5.4c5.3,0,9.4-1.8,12.5-5.4c3.1-3.6,4.6-8.1,4.6-13.6
			c0-5.4-1.5-9.9-4.6-13.5c-3.1-3.6-7.2-5.4-12.5-5.4c-5.3,0-9.4,1.8-12.3,5.4c-3,3.6-4.4,8.1-4.4,13.5
			C164.5,149.2,166,153.7,169,157.3z"/>
		<path class="st0" d="M259,182.7h-24.8V75.1H259V114c5.9-7.4,13.6-11.1,23.1-11.1c9.9,0,18.1,3.7,24.6,11
			c6.5,7.4,9.8,17.3,9.8,29.8c0,12.8-3.2,22.8-9.7,30.1c-6.5,7.3-14.7,10.9-24.7,10.9c-9,0-16.7-3.7-23.1-11V182.7z M259,155.8
			c1.5,2,3.7,3.7,6.5,5c2.8,1.3,5.6,1.9,8.3,1.9c5.1,0,9.2-1.7,12.4-5.2c3.2-3.4,4.8-8.1,4.8-13.9c0-5.7-1.6-10.3-4.8-13.7
			c-3.2-3.4-7.4-5.2-12.4-5.2c-2.7,0-5.5,0.7-8.3,2c-2.9,1.3-5,3-6.5,5.1V155.8z"/>
		<path class="st0" d="M349.3,93.7c-2.7,2.8-6.1,4.2-10.1,4.2c-4,0-7.3-1.4-10.1-4.2c-2.7-2.8-4.1-6.2-4.1-10.2
			c0-4,1.4-7.3,4.1-10.1c2.7-2.7,6.1-4.1,10.1-4.1c4,0,7.3,1.4,10.1,4.1c2.7,2.7,4.1,6.1,4.1,10.1C353.4,87.5,352.1,90.9,349.3,93.7
			z M351.7,182.7h-24.8v-77.9h24.8V182.7z"/>
		<path class="st0" d="M391.4,182.7h-24.8V75.1h24.8V182.7z"/>
		<path class="st0" d="M444.5,184.6c-12.3,0-22.4-3.7-30.5-11.2c-8.1-7.5-12.1-17.4-12.1-29.8c0-11.5,3.9-21.2,11.7-29
			c7.8-7.8,17.7-11.8,29.8-11.8c11.7,0,21.3,4,28.7,11.9c7.4,7.9,11.1,18.4,11.1,31.5v5.3h-55.5c0.8,3.9,2.8,7.2,6.3,9.8
			c3.4,2.7,7.8,4,13.2,4c3,0,6.5-0.6,10.4-1.9c3.9-1.2,6.9-2.8,9-4.8l10.5,15.5c-3.8,3.3-8.6,5.9-14.4,7.7
			C456.8,183.7,450.7,184.6,444.5,184.6z M459.5,135.4c-0.4-3.4-1.9-6.5-4.5-9.3s-6.5-4.1-11.6-4.1c-4.8,0-8.5,1.3-11.1,4
			c-2.6,2.7-4.2,5.8-4.8,9.4H459.5z"/>
		<path class="st0" d="M127.1,311.7h-24.8v-77.9h24.8v9.5c2.7-3.2,6.3-6,10.8-8.2c4.5-2.3,9-3.4,13.5-3.4v23.9
			c-1.9-0.4-4-0.6-6.1-0.6c-3.4,0-7,0.7-10.6,2c-3.6,1.3-6.2,3-7.7,5.1V311.7z"/>
		<path class="st0" d="M197.6,313.6c-12.3,0-22.4-3.7-30.5-11.2c-8.1-7.5-12.1-17.4-12.1-29.8c0-11.5,3.9-21.2,11.7-29
			c7.8-7.8,17.7-11.8,29.8-11.8c11.7,0,21.3,4,28.7,11.9s11.1,18.4,11.1,31.5v5.3h-55.5c0.8,3.9,2.8,7.2,6.3,9.8
			c3.4,2.7,7.8,4,13.2,4c3,0,6.5-0.6,10.4-1.9c3.9-1.2,6.9-2.8,9-4.8l10.5,15.5c-3.8,3.3-8.6,5.9-14.4,7.7
			C209.9,312.7,203.9,313.6,197.6,313.6z M212.6,264.5c-0.4-3.4-1.9-6.5-4.5-9.3c-2.6-2.7-6.5-4.1-11.6-4.1c-4.8,0-8.5,1.3-11.1,4
			c-2.6,2.7-4.2,5.8-4.8,9.4H212.6z"/>
		<path class="st0" d="M290.3,311.7h-26.4l-30.6-77.9h26.1l17.6,49.3l17.7-49.3h26.3L290.3,311.7z"/>
		<path class="st0" d="M348.9,222.7c-2.7,2.8-6.1,4.2-10.1,4.2c-4,0-7.3-1.4-10.1-4.2c-2.7-2.8-4.1-6.2-4.1-10.2
			c0-4,1.4-7.3,4.1-10.1c2.7-2.7,6.1-4.1,10.1-4.1c4,0,7.3,1.4,10.1,4.1c2.7,2.7,4.1,6.1,4.1,10.1
			C353,216.5,351.6,219.9,348.9,222.7z M351.2,311.7h-24.8v-77.9h24.8V311.7z"/>
		<path class="st0" d="M403.8,313.6c-12.3,0-22.4-3.7-30.5-11.2c-8.1-7.5-12.1-17.4-12.1-29.8c0-11.5,3.9-21.2,11.7-29
			c7.8-7.8,17.7-11.8,29.8-11.8c11.7,0,21.3,4,28.7,11.9s11.1,18.4,11.1,31.5v5.3H387c0.8,3.9,2.8,7.2,6.3,9.8c3.4,2.7,7.8,4,13.2,4
			c3,0,6.5-0.6,10.4-1.9c3.9-1.2,6.9-2.8,9-4.8l10.5,15.5c-3.8,3.3-8.6,5.9-14.4,7.7C416.1,312.7,410,313.6,403.8,313.6z
			 M418.8,264.5c-0.4-3.4-1.9-6.5-4.5-9.3c-2.6-2.7-6.5-4.1-11.6-4.1c-4.8,0-8.5,1.3-11.1,4c-2.6,2.7-4.2,5.8-4.8,9.4H418.8z"/>
		<path class="st0" d="M546.9,311.7h-26.8l-14.7-48.2l-14.5,48.2h-26.8l-23.1-77.9h25.5l12.6,47.7l15.3-47.7h22.1l15.3,47.7
			l12.4-47.7h25.6L546.9,311.7z"/>
	</g>
</g>
</svg>
