<?xml version="1.0" encoding="UTF-8" standalone="no"?>
<!DOCTYPE svg PUBLIC "-//W3C//DTD SVG 1.1//EN" "http://www.w3.org/Graphics/SVG/1.1/DTD/svg11.dtd">
<svg xmlns="http://www.w3.org/2000/svg" version="1.1" viewBox="0.00 0.00 300.00 164.00">
<path fill="#000000" d="
  M 47.80 43.10
  L 69.04 63.58
  C 69.46 63.99 70.13 63.99 70.55 63.57
  C 96.90 37.20 127.68 14.71 162.53 0.82
  C 162.65 0.77 162.77 0.75 162.90 0.75
  C 163.13 0.76 163.14 0.81 162.94 0.91
  C 128.82 17.60 99.66 42.96 72.11 71.86
  C 56.78 87.94 41.88 107.10 33.82 127.57
  C 30.24 136.66 29.32 146.02 31.06 155.65
  C 31.11 155.91 30.95 156.16 30.70 156.24
  C 30.45 156.31 30.18 156.19 30.08 155.95
  C 24.96 144.23 30.70 125.34 36.06 114.48
  C 43.15 100.10 51.83 86.91 62.10 74.92
  C 62.56 74.38 62.50 73.58 61.97 73.11
  L 27.35 42.31
  C 27.13 42.11 27.27 41.75 27.57 41.75
  L 44.45 41.75
  C 45.70 41.75 46.90 42.23 47.80 43.10
  Z"
/>
<path fill="#000000" d="
  M 171.97 2.84
  C 138.67 22.45 111.28 46.55 86.08 75.86
  C 85.63 76.39 85.65 76.89 86.14 77.38
  L 118.84 109.42
  C 119.15 109.72 118.93 110.25 118.50 110.25
  L 102.51 110.25
  C 102.10 110.25 101.75 110.10 101.46 109.81
  L 79.48 87.55
  C 78.81 86.87 77.71 86.89 77.07 87.59
  C 67.88 97.61 60.58 108.81 55.18 121.18
  C 49.76 133.60 39.88 161.14 67.57 155.43
  C 81.36 152.58 93.18 144.98 105.06 137.67
  C 105.23 137.57 105.42 137.77 105.31 137.93
  C 104.76 138.76 104.04 139.51 103.15 140.17
  C 91.35 149.02 52.46 173.94 39.21 159.20
  C 23.20 141.38 51.64 102.70 63.08 88.97
  C 81.22 67.20 101.57 47.75 124.14 30.62
  C 139.26 19.14 154.30 9.23 171.51 2.20
  C 171.78 2.09 171.97 2.15 172.09 2.40
  C 172.17 2.56 172.12 2.75 171.97 2.84
  Z"
/>
<path fill="#000000" d="
  M 241.50 60.50
  L 213.00 60.50
  C 212.33 60.50 211.96 60.17 211.89 59.52
  C 211.07 52.32 207.45 47.07 201.04 43.78
  C 200.66 43.58 200.80 43.00 201.23 43.00
  L 299.29 43.00
  C 299.65 43.00 299.85 43.41 299.63 43.69
  L 287.08 60.09
  C 286.87 60.36 286.59 60.50 286.24 60.50
  L 263.50 60.50
  C 263.16 60.50 262.99 60.67 262.99 61.01
  L 263.00 109.00
  C 263.01 109.55 262.56 110.00 262.00 110.00
  L 243.25 110.00
  C 242.70 110.00 242.25 109.55 242.25 109.00
  L 242.25 61.25
  C 242.25 60.84 241.91 60.50 241.50 60.50
  Z"
/>
<path fill="#000000" d="
  M 105.64 59.89
  L 122.10 43.66
  C 122.37 43.39 122.69 43.26 123.06 43.26
  C 143.47 43.25 163.87 43.23 184.25 43.21
  C 196.43 43.20 209.39 48.30 208.54 62.97
  C 208.22 68.49 205.69 72.57 200.94 75.20
  C 200.66 75.36 200.67 75.76 200.95 75.90
  C 208.29 79.60 211.32 85.67 210.03 94.12
  C 208.16 106.41 195.71 109.92 184.93 109.96
  C 164.95 110.03 144.97 110.03 124.99 109.98
  C 124.72 109.98 124.50 109.76 124.50 109.49
  L 124.50 69.76
  C 124.50 69.48 124.73 69.25 125.01 69.25
  C 144.40 69.25 163.86 69.25 183.39 69.25
  C 187.65 69.24 190.90 66.15 188.09 62.00
  C 187.91 61.73 187.66 61.53 187.36 61.43
  C 185.69 60.82 184.55 60.51 183.94 60.51
  C 158.95 60.50 132.95 60.51 105.95 60.53
  C 105.60 60.53 105.40 60.12 105.64 59.89
  Z
  M 145.25 84.39
  L 145.25 91.87
  C 145.25 92.36 145.65 92.76 146.14 92.76
  L 183.66 92.76
  C 186.89 92.76 189.51 90.76 189.51 88.30
  L 189.51 87.96
  C 189.51 85.50 186.89 83.50 183.66 83.50
  L 146.14 83.50
  C 145.65 83.50 145.25 83.90 145.25 84.39
  Z"
/>
<path fill="#000000" d="
  M 0.00 57.47
  L 0.00 44.37
  L 20.16 44.27
  C 20.48 44.27 20.74 44.53 20.75 44.86
  L 20.75 56.95
  C 20.75 57.29 20.58 57.46 20.25 57.46
  L 0.00 57.47
  Z"
/>
<path fill="#000000" d="
  M 0.00 109.82
  L 0.00 61.32
  L 20.05 61.29
  C 20.44 61.29 20.75 61.60 20.75 61.99
  L 20.75 108.74
  C 20.75 109.46 20.16 110.05 19.43 110.04
  L 0.00 109.82
  Z"
/>
<path fill="#000000" d="
  M 175.00 119.75
  C 182.37 120.43 188.32 124.43 187.55 132.53
  C 186.63 142.33 177.06 143.88 169.15 143.52
  C 159.90 143.11 151.42 139.61 153.78 128.55
  C 155.76 119.22 167.10 119.03 175.00 119.75
  Z
  M 180.1927 131.1377
  C 180.21 128.13 177.80 125.68 174.7908 125.6599
  L 166.2710 125.6004
  C 163.27 125.58 160.81 128.00 160.7932 131.0023
  L 160.7873 131.8423
  C 160.77 134.85 163.18 137.30 166.1892 137.3201
  L 174.7090 137.3796
  C 177.71 137.40 180.17 134.98 180.1868 131.9777
  L 180.1927 131.1377
  Z"
/>
<path fill="#000000" d="
  M 198.90 130.23
  L 195.75 142.51
  C 195.66 142.87 195.33 143.12 194.95 143.13
  L 189.17 143.21
  C 188.73 143.21 188.41 142.79 188.54 142.36
  L 194.74 121.56
  C 194.81 121.32 194.95 121.11 195.14 120.95
  C 198.54 118.09 201.06 119.48 203.03 122.92
  C 205.18 126.69 207.26 130.44 209.27 134.15
  C 209.54 134.65 210.27 134.65 210.53 134.14
  C 212.86 129.63 215.28 125.27 217.80 121.06
  C 219.81 117.69 224.49 119.78 225.40 122.91
  C 227.28 129.38 229.13 135.87 230.95 142.36
  C 231.08 142.81 230.90 143.05 230.43 143.07
  L 224.59 143.32
  C 224.20 143.33 223.95 143.15 223.84 142.77
  L 220.47 130.28
  C 220.33 129.77 219.64 129.70 219.41 130.18
  C 217.30 134.65 211.24 151.73 204.56 139.12
  C 202.95 136.08 201.36 133.08 199.81 130.13
  C 199.60 129.73 199.01 129.80 198.90 130.23
  Z"
/>
<path fill="#000000" d="
  M 151.14 137.09
  C 151.45 137.10 151.62 137.46 151.43 137.70
  L 147.61 142.62
  C 147.41 142.87 147.15 143.02 146.82 143.05
  C 140.48 143.70 130.66 144.04 125.72 139.90
  C 116.36 132.03 123.31 120.36 134.20 119.91
  C 139.83 119.68 145.46 119.65 151.11 119.82
  C 151.60 119.83 151.70 120.04 151.41 120.43
  L 147.58 125.54
  C 147.38 125.81 147.06 125.96 146.73 125.97
  C 142.82 126.02 135.37 125.17 131.96 126.78
  C 128.41 128.46 127.55 133.14 130.88 135.58
  C 134.45 138.22 146.39 136.94 151.14 137.09
  Z"
/>
<ellipse fill="#000000" cx="115.50" cy="140.12" rx="4.03" ry="3.44"/>
</svg>
