<?xml version="1.0" encoding="UTF-8" standalone="no"?>
<!DOCTYPE svg PUBLIC "-//W3C//DTD SVG 1.1//EN" "http://www.w3.org/Graphics/SVG/1.1/DTD/svg11.dtd">
<svg xmlns="http://www.w3.org/2000/svg" version="1.1" viewBox="0.00 0.00 1024.00 1024.00">
<g stroke-width="2.00" fill="none" stroke-linecap="butt">
<path stroke="#7f7f7f" vector-effect="non-scaling-stroke" d="
  M 369.47 31.70
  C 329.17 47.46 292.76 73.54 269.76 110.76
  C 253.89 136.44 250.18 160.52 251.14 190.57
  C 251.15 190.91 251.04 191.20 250.81 191.45
  C 248.86 193.50 247.53 195.84 246.84 198.45"
/>
<path stroke="#7d6000" vector-effect="non-scaling-stroke" d="
  M 246.84 198.45
  C 246.58 201.66 248.97 210.44 252.01 212.08
  C 252.31 212.24 252.44 212.49 252.39 212.83
  C 252.22 214.03 251.50 214.88 250.24 215.39"
/>
<path stroke="#7a7f00" vector-effect="non-scaling-stroke" d="
  M 250.24 215.39
  C 247.26 215.68 245.35 216.47 244.52 217.76
  C 233.41 235.02 223.23 249.41 208.92 263.68
  C 182.01 290.49 150.92 311.26 120.64 333.92
  C 116.07 337.34 112.67 340.43 110.44 343.18
  C 105.13 349.71 106.47 358.21 116.39 357.61
  C 133.57 356.57 150.78 353.52 167.63 350.19
  C 182.46 347.27 196.93 342.64 210.24 336.97
  C 226.27 330.14 244.98 321.63 266.38 311.45
  C 286.73 301.77 305.92 288.93 316.49 270.00
  C 316.80 269.45 317.23 269.05 317.79 268.82"
/>
<path stroke="#7f7f3d" vector-effect="non-scaling-stroke" d="
  M 317.79 268.82
  C 319.19 269.35 319.99 270.33 320.20 271.77
  C 321.65 281.71 312.32 295.55 304.25 300.55
  C 303.32 301.13 303.38 301.27 304.43 300.96
  C 305.87 300.55 306.97 300.33 308.45 300.40
  C 334.32 301.56 373.17 298.69 369.95 262.06
  C 368.30 243.22 350.50 247.32 339.95 254.96
  C 333.48 259.66 326.70 264.82 318.50 265.79"
/>
<path stroke="#7a7f00" vector-effect="non-scaling-stroke" d="
  M 318.50 265.79
  L 313.96 264.25
  C 313.65 264.14 313.42 264.23 313.25 264.50
  C 303.72 279.80 291.04 287.46 275.04 295.77
  C 235.52 316.30 202.03 335.83 161.27 342.58
  C 148.04 344.77 133.15 348.18 119.77 347.55"
/>
<path stroke="#7d6000" vector-effect="non-scaling-stroke" d="
  M 119.77 347.55
  C 122.35 346.57 124.53 345.99 126.32 345.81
  C 151.87 343.31 179.58 339.11 203.23 329.20
  C 230.20 317.90 256.95 303.31 283.31 289.58
  C 294.35 283.83 303.80 275.25 311.66 263.85
  C 311.83 263.60 311.83 263.36 311.66 263.11
  C 303.45 250.73 301.54 237.02 298.83 222.79
  C 296.47 210.36 288.23 189.79 271.67 192.81
  C 263.60 194.29 257.37 200.83 254.35 208.06
  C 252.48 212.51 251.63 212.33 251.79 207.50
  C 251.97 201.74 254.06 196.67 258.07 192.28"
/>
<path stroke="#7f7f3d" vector-effect="non-scaling-stroke" d="
  M 258.07 192.28
  C 266.02 185.52 276.37 183.78 285.90 188.04
  C 305.04 196.62 307.29 225.11 310.26 244.00
  C 310.88 247.95 314.34 262.09 320.75 259.31
  C 323.58 258.08 328.89 254.72 336.68 249.21
  C 348.69 240.71 371.11 237.56 375.93 256.33
  C 379.91 271.81 375.23 288.01 362.37 297.30
  C 351.78 304.95 336.30 307.23 322.94 306.68"
/>
<path stroke="#7a7f00" vector-effect="non-scaling-stroke" d="
  M 322.94 306.68
  C 315.83 306.88 308.69 306.73 301.51 306.23
  C 299.66 306.10 298.10 306.63 296.81 307.82
  C 296.53 308.08 296.58 308.25 296.96 308.32
  C 314.87 311.57 331.73 317.75 348.45 324.79"
/>
<path stroke="#7f7f3d" vector-effect="non-scaling-stroke" d="
  M 348.45 324.79
  C 361.16 330.26 373.46 336.55 385.35 343.68
  C 385.84 343.97 385.80 344.10 385.23 344.07
  C 382.36 343.94 379.46 343.27 376.53 342.06"
/>
<path stroke="#7f7f7f" vector-effect="non-scaling-stroke" d="
  M 376.53 342.06
  L 347.27 332.98
  C 346.81 332.84 346.37 333.23 346.46 333.70
  C 353.79 372.76 325.91 411.18 307.80 444.06
  C 301.03 456.35 295.23 470.03 290.40 485.09
  C 289.74 487.17 287.76 490.75 286.41 492.40
  C 269.72 512.85 258.71 536.05 253.38 562.02
  C 251.15 572.86 250.37 582.08 251.04 589.69
  C 252.57 607.11 253.17 616.91 251.83 631.85
  C 251.14 639.56 250.87 645.33 251.02 649.18
  C 252.88 696.61 280.52 739.31 314.68 770.07
  C 322.87 777.45 331.18 784.73 339.61 791.91"
/>
<path stroke="#7f7f3d" vector-effect="non-scaling-stroke" d="
  M 339.61 791.91
  C 359.99 808.91 382.20 823.29 406.25 835.06"
/>
<path stroke="#7a7f00" vector-effect="non-scaling-stroke" d="
  M 406.25 835.06
  C 436.45 850.46 467.19 859.06 499.00 862.75
  C 521.05 865.30 545.05 866.89 571.00 867.52
  C 592.44 868.04 616.77 866.97 638.32 862.34
  C 638.73 862.25 638.86 862.02 638.69 861.64
  C 638.18 860.45 637.44 859.42 636.46 858.53
  C 626.88 849.83 617.20 840.89 610.64 829.63
  C 610.59 829.55 610.69 829.46 610.76 829.52
  C 619.86 836.54 629.24 843.18 638.89 849.43
  C 644.67 853.18 650.15 858.47 655.32 861.95
  C 661.55 866.14 669.58 867.84 677.43 868.57
  C 692.39 869.95 708.77 866.19 721.50 857.23
  C 725.05 854.73 726.31 849.19 727.20 845.18
  C 729.86 833.13 732.38 820.99 734.75 808.74
  C 734.79 808.55 734.96 808.41 735.16 808.43
  C 735.35 808.44 735.51 808.59 735.52 808.79
  L 736.13 819.05
  C 736.14 819.30 736.44 819.44 736.64 819.28
  C 742.18 814.99 747.45 811.31 753.80 807.65
  C 777.38 794.09 801.62 781.55 824.23 766.40
  C 850.65 748.70 868.30 724.88 884.56 698.05"
/>
<path stroke="#7f7f3d" vector-effect="non-scaling-stroke" d="
  M 884.56 698.05
  C 903.14 671.94 918.37 649.46 926.72 619.24
  C 928.33 613.41 929.91 607.59 931.46 601.76
  C 931.53 601.52 931.45 601.45 931.22 601.56
  C 920.13 606.95 908.60 611.18 896.63 614.25
  C 896.54 614.27 896.44 614.22 896.41 614.13
  C 896.38 614.04 896.42 613.93 896.51 613.89
  C 927.66 598.99 951.36 566.43 963.86 535.16
  C 967.46 526.15 969.19 516.84 969.04 507.23
  C 969.04 507.01 968.76 506.91 968.61 507.08
  C 954.56 523.66 939.04 538.74 922.07 552.32
  C 912.17 560.24 901.91 566.32 891.30 570.56
  C 890.99 570.69 890.75 570.89 890.58 571.16
  C 886.70 577.37 882.26 583.15 877.26 588.49
  C 838.58 629.83 788.33 647.66 732.68 650.48
  C 732.01 650.51 731.07 650.10 730.34 650.03
  C 730.02 650.00 729.95 650.11 730.13 650.38
  C 731.79 652.73 731.59 655.04 729.52 657.31
  C 721.34 666.30 702.12 668.81 690.24 669.53
  C 659.73 671.39 630.88 668.40 601.63 658.75
  C 574.49 649.80 539.95 626.39 536.63 594.01
  C 536.61 593.85 536.72 593.69 536.89 593.66
  C 537.05 593.63 537.21 593.72 537.26 593.88
  C 540.00 602.52 544.39 610.00 550.43 616.32
  C 575.36 642.37 615.79 655.21 652.27 660.33
  C 672.13 663.11 693.46 664.01 713.01 658.82
  C 716.55 657.88 719.86 656.43 722.93 654.46
  C 723.26 654.25 723.24 654.07 722.89 653.91
  C 711.35 648.70 699.91 644.54 688.04 640.15
  C 687.78 640.06 687.67 639.76 687.80 639.52
  C 687.99 639.18 688.46 639.09 689.21 639.25
  C 730.95 648.20 776.85 642.79 814.55 623.03
  C 838.22 610.62 862.16 595.11 879.71 574.53
  C 880.72 573.35 881.72 572.50 882.94 571.50
  C 883.33 571.18 883.27 571.02 882.77 571.02
  C 870.82 570.96 859.31 568.70 848.24 564.25
  C 847.84 564.09 847.95 563.50 848.38 563.49
  C 849.83 563.46 851.34 563.58 852.93 563.83
  C 877.66 567.88 899.15 564.13 918.01 546.88
  C 948.44 519.07 965.74 471.32 965.95 430.76
  C 966.00 421.62 964.47 413.01 961.38 404.93"
/>
<path stroke="#7f7f7f" vector-effect="non-scaling-stroke" d="
  M 961.38 404.93
  C 958.74 396.48 954.48 389.27 948.59 383.30
  C 948.39 383.10 948.04 383.23 948.02 383.52
  C 947.12 402.27 943.91 420.90 938.40 439.39"
/>
<path stroke="#7f7f3d" vector-effect="non-scaling-stroke" d="
  M 938.40 439.39
  C 934.96 449.14 930.96 457.73 926.40 465.14
  C 924.35 468.48 923.86 468.27 924.93 464.50
  C 930.86 443.79 932.91 422.35 931.09 400.18
  C 929.53 381.31 924.20 365.60 912.43 350.88
  C 912.17 350.56 911.99 350.60 911.88 350.99
  L 910.83 354.66"
/>
<path stroke="#7f7f7f" vector-effect="non-scaling-stroke" d="
  M 910.83 354.66
  C 906.99 371.22 897.40 386.62 883.23 396.09
  C 882.96 396.27 882.69 396.27 882.42 396.08
  L 868.17 386.06
  C 868.10 386.01 868.01 386.09 868.05 386.16
  C 874.13 397.99 876.36 410.11 874.74 422.51
  C 872.93 436.36 866.49 447.58 855.41 456.16"
/>
<path stroke="#7f7f3d" vector-effect="non-scaling-stroke" d="
  M 855.41 456.16
  C 838.68 468.91 817.04 476.58 796.36 483.33
  C 796.10 483.42 796.03 483.76 796.25 483.94
  C 808.00 493.61 818.21 505.83 828.89 516.65
  C 828.97 516.73 828.98 516.86 828.90 516.95
  C 828.83 517.03 828.70 517.05 828.61 516.99
  C 824.25 514.14 819.95 510.80 815.94 508.22
  C 788.81 490.73 763.57 470.11 733.74 458.27
  C 704.15 446.52 672.82 438.01 639.76 432.72
  C 616.33 428.97 593.11 428.85 569.65 432.14
  C 561.16 433.33 552.68 434.65 544.23 436.10
  C 533.30 437.97 522.04 436.87 512.71 430.58
  C 512.29 430.29 512.10 430.40 512.13 430.91
  C 513.13 446.16 518.31 461.83 529.77 472.24
  C 529.87 472.33 529.89 472.47 529.82 472.59
  C 529.75 472.70 529.61 472.74 529.49 472.69
  C 516.45 467.24 508.33 457.58 505.14 443.71
  C 497.62 410.99 506.45 375.07 524.31 347.26
  C 533.43 333.06 543.59 319.60 552.60 305.35
  C 567.87 281.20 576.56 254.83 578.68 226.25
  C 582.71 171.97 566.80 121.13 534.71 78.28
  C 525.04 65.37 512.94 54.04 498.43 44.31
  C 459.94 18.51 412.53 16.28 369.47 31.70"
/>
<path stroke="#fefebb" vector-effect="non-scaling-stroke" d="
  M 855.41 456.16
  C 856.45 456.79 857.29 457.09 858.36 456.25
  C 871.49 445.95 878.22 432.87 877.79 416.25
  C 877.74 414.12 877.06 410.97 877.42 408.28
  C 877.50 407.66 878.04 407.21 878.66 407.24
  C 887.00 407.67 896.07 404.73 900.69 397.24
  C 903.98 391.93 907.59 385.57 908.07 379.22
  C 908.28 376.45 908.58 370.36 910.54 367.95
  C 910.74 367.71 910.86 367.43 910.89 367.12
  C 911.25 363.95 911.80 360.82 912.53 357.73
  C 912.58 357.52 912.61 357.31 912.60 357.09
  C 912.56 354.76 911.97 353.95 910.83 354.66"
/>
<path stroke="#fefebb" vector-effect="non-scaling-stroke" d="
  M 938.40 439.39
  C 941.33 437.16 942.90 433.94 943.13 429.75
  C 943.15 429.41 943.30 429.15 943.59 428.98
  C 946.78 427.04 950.29 421.93 951.66 419.44
  C 954.30 414.64 959.05 412.97 959.25 406.75
  C 959.28 405.80 959.99 405.20 961.38 404.93"
/>
<path stroke="#f9fe3d" vector-effect="non-scaling-stroke" d="
  M 884.56 698.05
  C 883.42 696.18 882.16 695.36 879.85 695.68
  C 857.54 698.82 837.61 707.46 820.08 721.59
  C 806.57 732.48 792.59 746.42 779.20 754.72
  C 748.67 773.65 713.81 768.87 679.59 771.79
  C 657.31 773.68 634.59 777.89 611.43 784.41
  C 592.02 789.88 576.23 794.10 564.06 797.07
  C 510.76 810.11 449.25 808.64 398.44 788.06
  C 374.30 778.27 348.66 765.52 329.65 748.35
  C 325.71 744.79 322.49 742.01 319.99 740.02
  C 319.62 739.73 319.47 739.82 319.52 740.28
  C 320.13 745.64 322.73 751.27 324.67 756.29
  C 329.81 769.55 340.01 780.35 350.30 789.27
  C 363.60 800.81 377.56 811.49 392.19 821.31
  C 396.02 823.88 400.66 827.91 406.13 833.42
  C 406.34 833.63 406.42 833.89 406.38 834.18
  L 406.25 835.06"
/>
<path stroke="#fefebb" vector-effect="non-scaling-stroke" d="
  M 339.61 791.91
  C 339.78 788.52 338.62 785.66 336.14 783.35
  C 335.57 782.82 335.09 781.74 334.71 780.10
  C 333.77 776.08 328.84 771.86 326.23 768.62
  C 324.05 765.91 320.77 764.36 318.64 762.36
  C 317.05 760.87 315.41 759.42 313.73 758.03
  C 313.50 757.84 313.34 757.57 313.28 757.28
  C 313.19 756.81 312.97 756.42 312.64 756.11
  C 301.48 745.82 294.05 733.73 285.41 719.12
  C 275.81 702.87 268.93 684.60 265.51 666.06
  C 263.23 653.71 264.26 640.09 264.07 628.85
  C 264.07 628.52 263.98 628.23 263.79 627.97
  C 263.55 627.63 263.44 627.14 263.45 626.50
  C 263.56 621.88 263.66 617.26 263.73 612.64
  C 263.77 610.13 262.93 607.68 262.96 605.13
  C 263.05 595.14 263.46 585.15 264.21 575.18
  C 264.49 571.40 265.03 567.21 266.47 563.64
  C 268.88 557.70 269.98 550.34 271.51 545.46
  C 275.19 533.76 279.80 522.43 285.33 511.47
  C 286.65 508.86 287.52 505.86 288.93 502.96
  C 290.56 499.59 290.85 495.85 292.63 492.66
  C 295.34 487.79 298.12 482.97 300.99 478.20
  C 309.95 463.28 316.64 447.30 325.51 432.47
  C 337.20 412.94 347.84 395.97 355.18 373.36
  C 357.40 366.51 360.36 354.06 360.32 345.05
  C 360.32 344.68 360.40 344.34 360.56 344.02
  C 360.99 343.18 361.14 342.28 361.00 341.33
  C 360.88 340.54 361.62 339.89 362.38 340.11
  L 375.83 343.86
  C 375.99 343.90 376.17 343.84 376.27 343.71
  C 376.51 343.38 376.60 342.83 376.53 342.06"
/>
<path stroke="#f9fe3d" vector-effect="non-scaling-stroke" d="
  M 348.45 324.79
  C 348.40 324.01 348.66 323.53 349.24 323.34
  C 349.59 323.23 350.06 323.29 350.64 323.53
  C 364.86 329.48 372.76 334.84 384.05 340.49
  C 393.11 345.02 408.11 343.20 416.68 339.69
  C 427.59 335.22 433.64 322.98 427.07 312.44
  C 417.46 297.04 392.02 292.65 375.52 290.61
  C 371.73 290.14 368.68 293.71 365.34 296.68
  C 359.86 301.57 352.54 304.21 345.75 306.61
  C 345.43 306.72 345.11 306.76 344.78 306.72
  C 343.99 306.64 343.00 306.77 341.81 307.10
  C 339.26 307.82 333.49 308.19 324.49 308.22
  C 324.19 308.22 323.98 308.08 323.87 307.81
  C 323.68 307.36 323.37 306.98 322.94 306.68"
/>
<path stroke="#fcdf3d" vector-effect="non-scaling-stroke" d="
  M 258.07 192.28
  L 257.46 191.52"
/>
<path stroke="#fefebb" vector-effect="non-scaling-stroke" d="
  M 257.46 191.52
  C 258.56 190.18 258.54 188.78 257.41 187.31
  C 257.20 187.04 257.12 186.73 257.19 186.39
  C 258.18 181.16 259.10 175.92 259.96 170.67
  C 260.31 168.53 259.88 165.87 261.44 163.38
  C 261.62 163.10 261.73 162.80 261.78 162.48
  C 262.30 158.88 264.49 156.48 265.26 153.25
  C 273.68 117.72 297.95 88.29 326.12 65.64
  C 334.79 58.67 343.90 52.63 352.48 45.38
  C 357.64 41.03 362.75 36.53 368.93 33.69
  C 369.63 33.36 369.81 32.70 369.47 31.70"
/>
<path stroke="#f7df00" vector-effect="non-scaling-stroke" d="
  M 119.77 347.55
  C 121.03 342.57 129.02 336.40 132.34 333.24
  C 142.84 323.25 155.55 315.96 167.03 307.24
  C 185.88 292.89 205.42 278.95 220.71 260.61
  C 231.24 248.00 240.01 234.21 247.03 219.25
  C 247.75 217.73 248.84 217.20 250.29 216.63
  C 250.60 216.50 250.69 216.29 250.54 215.99
  L 250.24 215.39"
/>
<path stroke="#fcdf7f" vector-effect="non-scaling-stroke" d="
  M 257.46 191.52
  L 252.32 191.48
  C 251.90 191.47 251.59 191.65 251.39 192.02
  L 247.59 198.93
  C 247.48 199.13 247.18 199.13 247.08 198.92
  L 246.84 198.45"
/>
<path stroke="#f9fe3d" vector-effect="non-scaling-stroke" d="
  M 318.50 265.79
  L 317.79 268.82"
/>
<path stroke="#7d6000" vector-effect="non-scaling-stroke" d="
  M 444.51 936.47
  C 452.10 939.89 471.86 946.47 478.30 942.33
  C 478.58 942.15 478.75 941.90 478.82 941.57
  C 482.27 924.74 485.02 909.57 492.25 893.77"
/>
<path stroke="#7a7f00" vector-effect="non-scaling-stroke" d="
  M 492.25 893.77
  C 495.27 887.64 498.82 881.89 502.91 876.51
  C 503.06 876.32 503.02 876.20 502.78 876.15
  L 453.88 866.17
  C 453.63 866.12 453.39 866.28 453.33 866.53
  C 450.05 881.98 447.62 896.16 443.05 913.26
  C 442.42 915.61 441.42 918.29 440.03 921.28
  C 439.89 921.59 439.65 921.79 439.32 921.86
  C 422.37 925.62 407.82 929.76 393.59 938.43
  C 385.57 943.32 378.77 947.30 371.76 949.28
  C 369.17 950.01 366.06 950.03 362.43 949.34
  C 346.13 946.23 328.68 948.72 314.97 958.95
  C 314.64 959.19 314.67 959.70 315.03 959.90
  C 320.73 963.12 326.59 965.98 332.62 968.49
  C 349.99 975.72 366.80 973.35 384.93 968.57
  C 385.26 968.48 385.51 968.58 385.69 968.87
  C 390.62 976.56 398.04 981.38 407.93 983.32
  C 425.19 986.72 444.63 983.73 461.44 979.15
  C 461.63 979.10 461.67 978.99 461.58 978.82
  C 458.66 973.19 456.21 967.32 454.23 961.21
  C 453.57 959.19 452.33 957.78 451.02 956.21
  C 450.99 956.17 450.98 956.12 451.01 956.09
  C 451.04 956.08 451.07 956.06 451.10 956.05
  C 451.19 956.01 451.27 956.03 451.35 956.11
  C 456.68 961.30 476.59 978.44 483.23 973.49
  C 492.91 966.28 502.84 961.09 513.02 957.93
  C 513.25 957.86 513.26 957.76 513.05 957.63
  C 505.10 952.88 497.34 950.17 489.76 949.50
  C 470.87 947.85 458.23 946.20 443.07 936.48
  C 442.78 936.29 442.80 936.16 443.15 936.10
  C 443.60 936.03 444.05 936.15 444.51 936.47"
/>
<path stroke="#f7df00" vector-effect="non-scaling-stroke" d="
  M 492.25 893.77
  C 491.65 893.82 491.32 893.52 491.25 892.87
  C 491.22 892.54 491.30 892.17 491.51 891.74
  C 493.72 887.22 496.40 882.96 499.53 878.95
  C 500.11 878.21 499.71 877.13 498.79 876.94
  L 459.46 868.83
  C 458.58 868.64 458.14 869.00 458.14 869.90
  C 458.15 888.48 454.76 904.97 450.53 922.51
  C 449.38 927.27 447.37 931.92 444.51 936.47"
/>
<path stroke="#7d6000" vector-effect="non-scaling-stroke" d="
  M 619.92 928.68
  C 619.85 929.58 619.37 930.31 618.46 930.87"
/>
<path stroke="#7a7f00" vector-effect="non-scaling-stroke" d="
  M 618.46 930.87
  C 615.59 931.84 612.91 932.83 610.40 933.83
  C 588.10 942.74 566.75 941.38 548.98 960.98
  C 546.43 963.80 540.04 972.35 536.43 972.75
  C 521.07 974.47 507.09 978.39 496.32 988.54
  C 496.04 988.81 496.16 989.28 496.53 989.38
  C 499.63 990.23 502.87 990.71 506.26 990.80
  C 517.36 991.09 528.46 991.39 539.57 991.69
  C 540.77 991.72 543.07 992.42 544.10 993.01
  C 562.39 1003.41 587.89 1004.28 601.46 985.55
  C 601.67 985.25 601.93 985.21 602.22 985.44
  C 620.31 999.40 652.14 1001.73 672.37 990.72
  C 673.38 990.17 673.61 989.39 673.07 988.38
  L 662.60 968.67
  C 662.45 968.39 662.80 968.10 663.04 968.31
  C 666.75 971.50 670.54 974.59 674.42 977.56
  C 693.90 992.47 722.09 992.80 745.29 986.73
  C 745.55 986.66 745.63 986.33 745.42 986.15
  C 739.02 980.57 734.21 975.42 728.83 967.53
  C 719.91 954.44 707.70 946.60 691.49 946.71
  C 671.00 946.84 653.08 945.79 637.71 943.55"
/>
<path stroke="#7d6000" vector-effect="non-scaling-stroke" d="
  M 637.71 943.55
  L 666.51 940.04
  C 666.82 940.00 667.01 939.83 667.08 939.52
  C 672.35 916.77 689.15 893.59 703.34 876.38
  C 703.54 876.13 703.49 876.04 703.18 876.11
  C 689.83 878.92 676.57 877.70 663.25 875.46"
/>
<path stroke="#7a7f00" vector-effect="non-scaling-stroke" d="
  M 663.25 875.46
  C 658.22 874.49 653.39 872.93 648.76 870.77
  C 648.29 870.55 647.73 870.74 647.48 871.20
  L 615.78 930.09
  C 615.60 930.41 615.95 930.77 616.28 930.60
  L 619.92 928.68"
/>
<path stroke="#f7df00" vector-effect="non-scaling-stroke" d="
  M 663.25 875.46
  C 663.68 875.97 663.46 876.36 662.59 876.62
  C 662.52 876.64 662.44 876.64 662.36 876.63
  L 654.93 875.32
  C 654.54 875.25 654.16 875.47 654.02 875.84
  C 646.49 896.00 635.12 913.61 619.92 928.68"
/>
<path stroke="#f7df00" vector-effect="non-scaling-stroke" d="
  M 637.71 943.55
  C 627.49 939.66 621.24 940.18 611.54 940.85
  C 610.85 940.90 610.45 940.09 610.90 939.57
  L 618.46 930.87"
/>
<path stroke="#7f7f3d" vector-effect="non-scaling-stroke" d="
  M 395.44 114.44
  C 385.47 127.03 383.13 141.42 388.40 157.61
  C 396.76 183.31 426.65 181.21 443.29 165.87
  C 457.60 152.67 458.82 131.75 447.11 116.16
  C 434.35 99.18 408.95 97.36 395.44 114.44"
/>
<path stroke="#7f7f3d" vector-effect="non-scaling-stroke" d="
  M 760.63 519.78
  C 782.06 536.12 807.01 546.85 833.66 549.25
  C 858.76 551.51 881.60 549.21 904.19 537.57
  C 904.28 537.52 904.32 537.42 904.28 537.33
  C 904.25 537.23 904.15 537.18 904.05 537.21
  C 869.54 546.43 835.19 545.09 801.36 533.56
  C 787.70 528.91 774.26 524.07 761.03 519.06
  C 760.84 518.99 760.62 519.07 760.52 519.25
  C 760.42 519.43 760.47 519.66 760.63 519.78"
/>
<path stroke="#7f7f3d" vector-effect="non-scaling-stroke" d="
  M 666.34 562.20
  C 683.28 573.29 701.49 581.61 720.98 587.17
  C 741.14 592.92 764.63 596.82 786.20 595.40
  C 794.84 594.83 808.92 595.39 817.78 591.39
  C 817.97 591.31 817.93 591.03 817.73 591.00
  C 817.16 590.93 816.66 591.07 816.23 591.43
  C 816.01 591.61 815.76 591.72 815.48 591.75
  C 804.93 593.03 793.91 594.67 783.53 593.97
  C 763.73 592.64 744.45 588.57 725.70 581.76
  C 705.89 574.57 686.02 567.66 666.11 561.04
  C 665.82 560.94 665.57 561.25 665.70 561.52
  C 665.82 561.77 666.03 562.00 666.34 562.20"
/>
<path stroke="#7f7f3d" vector-effect="non-scaling-stroke" d="
  M 545.68 574.40
  C 552.56 596.27 572.33 608.45 593.91 612.11
  C 594.05 612.13 594.18 612.05 594.21 611.92
  C 594.25 611.78 594.18 611.64 594.05 611.59
  C 573.99 603.87 557.70 592.44 546.34 574.09
  C 546.24 573.93 546.04 573.87 545.88 573.95
  C 545.71 574.03 545.62 574.22 545.68 574.40"
/>
<path stroke="#7f7f3d" vector-effect="non-scaling-stroke" d="
  M 431.8828 131.8430
  C 436.16 130.82 438.77 126.36 437.7030 121.8830
  C 436.64 117.40 432.30 114.60 428.0172 115.6170
  C 423.74 116.64 421.13 121.10 422.1970 125.5770
  C 423.26 130.06 427.60 132.86 431.8828 131.8430"
/>
<path stroke="#7f7f7f" vector-effect="non-scaling-stroke" d="
  M 395.99 123.50
  C 386.21 142.77 391.51 171.01 417.94 171.52
  C 421.45 171.59 425.26 170.63 428.81 169.83
  C 428.90 169.81 428.94 169.73 428.94 169.59
  C 428.93 169.49 428.85 169.42 428.76 169.44
  C 427.23 169.72 425.97 169.87 424.42 169.58
  C 405.00 166.03 395.82 145.54 396.24 127.55
  C 396.26 126.62 396.84 124.64 396.65 123.60
  C 396.53 122.91 396.31 122.87 395.99 123.50"
/>
<path stroke="#7d6000" vector-effect="non-scaling-stroke" d="
  M 271.39 218.04
  L 274.15 231.92
  C 274.21 232.20 274.40 232.43 274.66 232.52
  C 277.60 233.57 279.51 232.61 280.38 229.64
  C 282.03 224.04 280.99 216.86 277.45 212.15
  C 275.43 209.46 271.81 208.74 268.92 210.71
  C 263.47 214.45 259.42 224.45 257.77 230.60
  C 257.69 230.89 257.54 231.14 257.32 231.35
  C 257.01 231.64 256.78 231.96 256.63 232.29
  C 256.44 232.72 256.51 232.76 256.84 232.43
  L 270.94 217.91
  C 271.09 217.76 271.35 217.83 271.39 218.04"
/>
</g>
<path fill="#000000" d="
  M 686.69 1003.47
  C 680.67 1008.65 673.05 1012.42 665.53 1013.94
  C 645.00 1018.11 625.25 1015.92 606.29 1007.38
  C 605.98 1007.25 605.69 1007.28 605.42 1007.47
  C 587.57 1020.09 563.45 1019.87 543.60 1012.91
  C 538.57 1011.14 533.39 1009.34 528.45 1009.29
  C 522.56 1009.24 516.66 1009.14 510.77 1009.00
  C 507.45 1008.93 504.13 1008.22 500.75 1007.81
  C 491.53 1006.71 480.48 1003.70 475.44 995.06
  C 475.11 994.49 474.42 994.24 473.81 994.47
  C 471.20 995.46 468.43 996.25 465.52 996.84
  C 451.61 999.66 435.94 1000.92 418.52 1000.63
  C 402.61 1000.36 388.81 995.82 377.13 986.99
  C 376.86 986.78 376.56 986.71 376.23 986.77
  C 363.17 988.92 350.06 989.35 336.90 988.04
  C 325.68 986.93 313.95 980.72 303.44 976.72
  C 299.03 975.03 296.17 973.45 294.87 971.97
  C 289.96 966.39 293.66 957.73 298.13 952.61
  C 316.18 931.86 339.30 930.70 364.99 932.41
  C 370.20 932.76 377.11 927.97 382.58 924.83
  C 395.45 917.45 408.94 912.02 423.07 908.53
  C 424.04 908.28 424.84 907.59 425.22 906.66
  C 430.14 894.65 432.22 881.77 435.00 869.06
  C 435.17 868.31 434.78 867.55 434.07 867.24
  C 397.83 851.68 362.60 834.38 331.97 809.28
  C 309.00 790.46 286.02 770.92 267.60 746.65
  C 242.22 713.22 228.45 670.26 234.26 628.43
  C 235.15 622.02 235.63 614.50 234.99 609.50
  C 232.92 593.23 232.52 578.79 233.81 566.19
  C 236.18 543.12 243.64 521.87 256.20 502.44
  C 260.21 496.24 264.31 490.11 268.52 484.04
  C 270.62 481.02 272.81 477.11 274.16 473.66
  C 281.96 453.83 288.34 439.17 298.74 422.20
  C 309.55 404.54 320.50 384.39 326.85 364.33
  C 330.27 353.54 332.32 337.98 319.57 332.17
  C 313.29 329.32 286.37 319.37 280.05 323.11
  C 278.68 323.92 277.63 324.48 276.92 324.78
  C 266.31 329.28 255.52 333.62 245.10 338.27
  C 214.80 351.82 192.70 361.90 162.91 366.42
  C 145.56 369.05 135.05 370.89 121.13 373.20
  C 116.85 373.91 111.48 374.21 107.27 373.44
  C 93.39 370.90 86.82 355.97 90.96 343.24
  C 95.02 330.75 107.06 321.13 118.86 312.56
  C 147.00 292.12 176.47 271.33 200.96 247.21
  C 208.14 240.14 214.65 231.97 220.48 222.71
  C 223.13 218.50 225.63 210.15 230.19 203.59
  C 232.19 200.71 233.12 198.71 233.04 194.95
  C 232.69 178.99 232.75 168.59 233.23 163.74
  C 241.92 75.64 324.46 15.50 406.51 4.25
  C 454.99 -2.40 507.39 18.18 540.29 54.72
  C 579.80 98.61 598.82 155.72 598.15 214.40
  C 597.93 233.60 595.40 251.80 589.99 270.17
  C 581.44 299.20 563.53 323.48 546.81 348.16
  C 534.46 366.39 525.74 384.03 522.22 405.97
  C 519.88 420.59 541.84 418.97 549.94 417.46
  C 574.17 412.93 595.47 409.81 619.26 411.89
  C 634.79 413.25 651.62 415.95 669.75 420.00
  C 709.94 428.97 751.29 442.18 785.26 465.40
  C 785.54 465.60 785.89 465.69 786.24 465.65
  C 788.81 465.38 792.64 464.65 797.72 463.45
  C 823.90 457.27 864.05 438.10 855.76 404.51
  C 854.45 399.22 850.41 392.24 849.41 387.33
  C 847.03 375.61 857.44 365.32 869.22 368.49
  C 872.30 369.32 875.52 371.51 878.43 373.29
  C 879.10 373.70 879.96 373.62 880.54 373.09
  C 888.65 365.75 892.42 357.15 895.71 346.99
  C 899.14 336.38 902.82 329.25 915.77 332.89
  C 928.98 336.60 935.70 353.08 940.97 364.10
  C 941.12 364.41 941.36 364.54 941.71 364.48
  C 949.40 363.26 955.89 365.38 961.17 370.84
  C 991.91 402.61 989.18 449.66 974.60 487.99
  C 974.36 488.62 974.72 489.31 975.37 489.47
  C 991.23 493.33 988.63 517.27 985.70 528.54
  C 979.74 551.52 969.02 572.02 953.54 590.03
  C 950.46 593.61 951.46 597.16 950.74 601.33
  C 946.23 627.60 937.12 652.02 923.40 674.61
  C 912.19 693.08 899.86 710.96 888.01 729.02
  C 880.66 740.21 872.25 750.50 862.76 759.88
  C 847.82 774.64 829.94 785.55 810.79 796.53
  C 795.35 805.38 779.88 814.19 764.38 822.94
  C 757.42 826.87 748.21 831.62 746.96 839.61
  C 745.03 851.89 743.92 863.55 734.08 872.07
  C 726.80 878.37 721.36 883.04 715.48 890.43
  C 704.75 903.95 698.30 915.67 690.54 929.06
  C 690.34 929.41 690.59 929.85 690.99 929.85
  C 701.45 929.87 711.48 932.00 721.07 936.23
  C 730.34 940.32 735.93 945.50 741.50 953.70
  C 745.29 959.28 748.79 964.75 753.43 969.55
  C 760.09 976.41 769.63 983.19 763.65 993.51
  C 753.04 1011.81 704.41 1006.82 687.52 1003.26
  C 687.21 1003.19 686.93 1003.26 686.69 1003.47
  Z
  M 369.47 31.70
  C 329.17 47.46 292.76 73.54 269.76 110.76
  C 253.89 136.44 250.18 160.52 251.14 190.57
  C 251.15 190.91 251.04 191.20 250.81 191.45
  C 248.86 193.50 247.53 195.84 246.84 198.45
  C 246.58 201.66 248.97 210.44 252.01 212.08
  C 252.31 212.24 252.44 212.49 252.39 212.83
  C 252.22 214.03 251.50 214.88 250.24 215.39
  C 247.26 215.68 245.35 216.47 244.52 217.76
  C 233.41 235.02 223.23 249.41 208.92 263.68
  C 182.01 290.49 150.92 311.26 120.64 333.92
  C 116.07 337.34 112.67 340.43 110.44 343.18
  C 105.13 349.71 106.47 358.21 116.39 357.61
  C 133.57 356.57 150.78 353.52 167.63 350.19
  C 182.46 347.27 196.93 342.64 210.24 336.97
  C 226.27 330.14 244.98 321.63 266.38 311.45
  C 286.73 301.77 305.92 288.93 316.49 270.00
  C 316.80 269.45 317.23 269.05 317.79 268.82
  C 319.19 269.35 319.99 270.33 320.20 271.77
  C 321.65 281.71 312.32 295.55 304.25 300.55
  C 303.32 301.13 303.38 301.27 304.43 300.96
  C 305.87 300.55 306.97 300.33 308.45 300.40
  C 334.32 301.56 373.17 298.69 369.95 262.06
  C 368.30 243.22 350.50 247.32 339.95 254.96
  C 333.48 259.66 326.70 264.82 318.50 265.79
  L 313.96 264.25
  C 313.65 264.14 313.42 264.23 313.25 264.50
  C 303.72 279.80 291.04 287.46 275.04 295.77
  C 235.52 316.30 202.03 335.83 161.27 342.58
  C 148.04 344.77 133.15 348.18 119.77 347.55
  C 122.35 346.57 124.53 345.99 126.32 345.81
  C 151.87 343.31 179.58 339.11 203.23 329.20
  C 230.20 317.90 256.95 303.31 283.31 289.58
  C 294.35 283.83 303.80 275.25 311.66 263.85
  C 311.83 263.60 311.83 263.36 311.66 263.11
  C 303.45 250.73 301.54 237.02 298.83 222.79
  C 296.47 210.36 288.23 189.79 271.67 192.81
  C 263.60 194.29 257.37 200.83 254.35 208.06
  C 252.48 212.51 251.63 212.33 251.79 207.50
  C 251.97 201.74 254.06 196.67 258.07 192.28
  C 266.02 185.52 276.37 183.78 285.90 188.04
  C 305.04 196.62 307.29 225.11 310.26 244.00
  C 310.88 247.95 314.34 262.09 320.75 259.31
  C 323.58 258.08 328.89 254.72 336.68 249.21
  C 348.69 240.71 371.11 237.56 375.93 256.33
  C 379.91 271.81 375.23 288.01 362.37 297.30
  C 351.78 304.95 336.30 307.23 322.94 306.68
  C 315.83 306.88 308.69 306.73 301.51 306.23
  C 299.66 306.10 298.10 306.63 296.81 307.82
  C 296.53 308.08 296.58 308.25 296.96 308.32
  C 314.87 311.57 331.73 317.75 348.45 324.79
  C 361.16 330.26 373.46 336.55 385.35 343.68
  C 385.84 343.97 385.80 344.10 385.23 344.07
  C 382.36 343.94 379.46 343.27 376.53 342.06
  L 347.27 332.98
  C 346.81 332.84 346.37 333.23 346.46 333.70
  C 353.79 372.76 325.91 411.18 307.80 444.06
  C 301.03 456.35 295.23 470.03 290.40 485.09
  C 289.74 487.17 287.76 490.75 286.41 492.40
  C 269.72 512.85 258.71 536.05 253.38 562.02
  C 251.15 572.86 250.37 582.08 251.04 589.69
  C 252.57 607.11 253.17 616.91 251.83 631.85
  C 251.14 639.56 250.87 645.33 251.02 649.18
  C 252.88 696.61 280.52 739.31 314.68 770.07
  C 322.87 777.45 331.18 784.73 339.61 791.91
  C 359.99 808.91 382.20 823.29 406.25 835.06
  C 436.45 850.46 467.19 859.06 499.00 862.75
  C 521.05 865.30 545.05 866.89 571.00 867.52
  C 592.44 868.04 616.77 866.97 638.32 862.34
  C 638.73 862.25 638.86 862.02 638.69 861.64
  C 638.18 860.45 637.44 859.42 636.46 858.53
  C 626.88 849.83 617.20 840.89 610.64 829.63
  C 610.59 829.55 610.69 829.46 610.76 829.52
  C 619.86 836.54 629.24 843.18 638.89 849.43
  C 644.67 853.18 650.15 858.47 655.32 861.95
  C 661.55 866.14 669.58 867.84 677.43 868.57
  C 692.39 869.95 708.77 866.19 721.50 857.23
  C 725.05 854.73 726.31 849.19 727.20 845.18
  C 729.86 833.13 732.38 820.99 734.75 808.74
  C 734.79 808.55 734.96 808.41 735.16 808.43
  C 735.35 808.44 735.51 808.59 735.52 808.79
  L 736.13 819.05
  C 736.14 819.30 736.44 819.44 736.64 819.28
  C 742.18 814.99 747.45 811.31 753.80 807.65
  C 777.38 794.09 801.62 781.55 824.23 766.40
  C 850.65 748.70 868.30 724.88 884.56 698.05
  C 903.14 671.94 918.37 649.46 926.72 619.24
  C 928.33 613.41 929.91 607.59 931.46 601.76
  C 931.53 601.52 931.45 601.45 931.22 601.56
  C 920.13 606.95 908.60 611.18 896.63 614.25
  C 896.54 614.27 896.44 614.22 896.41 614.13
  C 896.38 614.04 896.42 613.93 896.51 613.89
  C 927.66 598.99 951.36 566.43 963.86 535.16
  C 967.46 526.15 969.19 516.84 969.04 507.23
  C 969.04 507.01 968.76 506.91 968.61 507.08
  C 954.56 523.66 939.04 538.74 922.07 552.32
  C 912.17 560.24 901.91 566.32 891.30 570.56
  C 890.99 570.69 890.75 570.89 890.58 571.16
  C 886.70 577.37 882.26 583.15 877.26 588.49
  C 838.58 629.83 788.33 647.66 732.68 650.48
  C 732.01 650.51 731.07 650.10 730.34 650.03
  C 730.02 650.00 729.95 650.11 730.13 650.38
  C 731.79 652.73 731.59 655.04 729.52 657.31
  C 721.34 666.30 702.12 668.81 690.24 669.53
  C 659.73 671.39 630.88 668.40 601.63 658.75
  C 574.49 649.80 539.95 626.39 536.63 594.01
  C 536.61 593.85 536.72 593.69 536.89 593.66
  C 537.05 593.63 537.21 593.72 537.26 593.88
  C 540.00 602.52 544.39 610.00 550.43 616.32
  C 575.36 642.37 615.79 655.21 652.27 660.33
  C 672.13 663.11 693.46 664.01 713.01 658.82
  C 716.55 657.88 719.86 656.43 722.93 654.46
  C 723.26 654.25 723.24 654.07 722.89 653.91
  C 711.35 648.70 699.91 644.54 688.04 640.15
  C 687.78 640.06 687.67 639.76 687.80 639.52
  C 687.99 639.18 688.46 639.09 689.21 639.25
  C 730.95 648.20 776.85 642.79 814.55 623.03
  C 838.22 610.62 862.16 595.11 879.71 574.53
  C 880.72 573.35 881.72 572.50 882.94 571.50
  C 883.33 571.18 883.27 571.02 882.77 571.02
  C 870.82 570.96 859.31 568.70 848.24 564.25
  C 847.84 564.09 847.95 563.50 848.38 563.49
  C 849.83 563.46 851.34 563.58 852.93 563.83
  C 877.66 567.88 899.15 564.13 918.01 546.88
  C 948.44 519.07 965.74 471.32 965.95 430.76
  C 966.00 421.62 964.47 413.01 961.38 404.93
  C 958.74 396.48 954.48 389.27 948.59 383.30
  C 948.39 383.10 948.04 383.23 948.02 383.52
  C 947.12 402.27 943.91 420.90 938.40 439.39
  C 934.96 449.14 930.96 457.73 926.40 465.14
  C 924.35 468.48 923.86 468.27 924.93 464.50
  C 930.86 443.79 932.91 422.35 931.09 400.18
  C 929.53 381.31 924.20 365.60 912.43 350.88
  C 912.17 350.56 911.99 350.60 911.88 350.99
  L 910.83 354.66
  C 906.99 371.22 897.40 386.62 883.23 396.09
  C 882.96 396.27 882.69 396.27 882.42 396.08
  L 868.17 386.06
  C 868.10 386.01 868.01 386.09 868.05 386.16
  C 874.13 397.99 876.36 410.11 874.74 422.51
  C 872.93 436.36 866.49 447.58 855.41 456.16
  C 838.68 468.91 817.04 476.58 796.36 483.33
  C 796.10 483.42 796.03 483.76 796.25 483.94
  C 808.00 493.61 818.21 505.83 828.89 516.65
  C 828.97 516.73 828.98 516.86 828.90 516.95
  C 828.83 517.03 828.70 517.05 828.61 516.99
  C 824.25 514.14 819.95 510.80 815.94 508.22
  C 788.81 490.73 763.57 470.11 733.74 458.27
  C 704.15 446.52 672.82 438.01 639.76 432.72
  C 616.33 428.97 593.11 428.85 569.65 432.14
  C 561.16 433.33 552.68 434.65 544.23 436.10
  C 533.30 437.97 522.04 436.87 512.71 430.58
  C 512.29 430.29 512.10 430.40 512.13 430.91
  C 513.13 446.16 518.31 461.83 529.77 472.24
  C 529.87 472.33 529.89 472.47 529.82 472.59
  C 529.75 472.70 529.61 472.74 529.49 472.69
  C 516.45 467.24 508.33 457.58 505.14 443.71
  C 497.62 410.99 506.45 375.07 524.31 347.26
  C 533.43 333.06 543.59 319.60 552.60 305.35
  C 567.87 281.20 576.56 254.83 578.68 226.25
  C 582.71 171.97 566.80 121.13 534.71 78.28
  C 525.04 65.37 512.94 54.04 498.43 44.31
  C 459.94 18.51 412.53 16.28 369.47 31.70
  Z
  M 444.51 936.47
  C 452.10 939.89 471.86 946.47 478.30 942.33
  C 478.58 942.15 478.75 941.90 478.82 941.57
  C 482.27 924.74 485.02 909.57 492.25 893.77
  C 495.27 887.64 498.82 881.89 502.91 876.51
  C 503.06 876.32 503.02 876.20 502.78 876.15
  L 453.88 866.17
  C 453.63 866.12 453.39 866.28 453.33 866.53
  C 450.05 881.98 447.62 896.16 443.05 913.26
  C 442.42 915.61 441.42 918.29 440.03 921.28
  C 439.89 921.59 439.65 921.79 439.32 921.86
  C 422.37 925.62 407.82 929.76 393.59 938.43
  C 385.57 943.32 378.77 947.30 371.76 949.28
  C 369.17 950.01 366.06 950.03 362.43 949.34
  C 346.13 946.23 328.68 948.72 314.97 958.95
  C 314.64 959.19 314.67 959.70 315.03 959.90
  C 320.73 963.12 326.59 965.98 332.62 968.49
  C 349.99 975.72 366.80 973.35 384.93 968.57
  C 385.26 968.48 385.51 968.58 385.69 968.87
  C 390.62 976.56 398.04 981.38 407.93 983.32
  C 425.19 986.72 444.63 983.73 461.44 979.15
  C 461.63 979.10 461.67 978.99 461.58 978.82
  C 458.66 973.19 456.21 967.32 454.23 961.21
  C 453.57 959.19 452.33 957.78 451.02 956.21
  C 450.99 956.17 450.98 956.12 451.01 956.09
  C 451.04 956.08 451.07 956.06 451.10 956.05
  C 451.19 956.01 451.27 956.03 451.35 956.11
  C 456.68 961.30 476.59 978.44 483.23 973.49
  C 492.91 966.28 502.84 961.09 513.02 957.93
  C 513.25 957.86 513.26 957.76 513.05 957.63
  C 505.10 952.88 497.34 950.17 489.76 949.50
  C 470.87 947.85 458.23 946.20 443.07 936.48
  C 442.78 936.29 442.80 936.16 443.15 936.10
  C 443.60 936.03 444.05 936.15 444.51 936.47
  Z
  M 619.92 928.68
  C 619.85 929.58 619.37 930.31 618.46 930.87
  C 615.59 931.84 612.91 932.83 610.40 933.83
  C 588.10 942.74 566.75 941.38 548.98 960.98
  C 546.43 963.80 540.04 972.35 536.43 972.75
  C 521.07 974.47 507.09 978.39 496.32 988.54
  C 496.04 988.81 496.16 989.28 496.53 989.38
  C 499.63 990.23 502.87 990.71 506.26 990.80
  C 517.36 991.09 528.46 991.39 539.57 991.69
  C 540.77 991.72 543.07 992.42 544.10 993.01
  C 562.39 1003.41 587.89 1004.28 601.46 985.55
  C 601.67 985.25 601.93 985.21 602.22 985.44
  C 620.31 999.40 652.14 1001.73 672.37 990.72
  C 673.38 990.17 673.61 989.39 673.07 988.38
  L 662.60 968.67
  C 662.45 968.39 662.80 968.10 663.04 968.31
  C 666.75 971.50 670.54 974.59 674.42 977.56
  C 693.90 992.47 722.09 992.80 745.29 986.73
  C 745.55 986.66 745.63 986.33 745.42 986.15
  C 739.02 980.57 734.21 975.42 728.83 967.53
  C 719.91 954.44 707.70 946.60 691.49 946.71
  C 671.00 946.84 653.08 945.79 637.71 943.55
  L 666.51 940.04
  C 666.82 940.00 667.01 939.83 667.08 939.52
  C 672.35 916.77 689.15 893.59 703.34 876.38
  C 703.54 876.13 703.49 876.04 703.18 876.11
  C 689.83 878.92 676.57 877.70 663.25 875.46
  C 658.22 874.49 653.39 872.93 648.76 870.77
  C 648.29 870.55 647.73 870.74 647.48 871.20
  L 615.78 930.09
  C 615.60 930.41 615.95 930.77 616.28 930.60
  L 619.92 928.68
  Z
  M 499.74 934.44
  C 512.48 937.90 522.47 941.06 531.43 951.45
  C 532.09 952.22 533.29 952.21 533.94 951.42
  C 549.74 932.10 570.55 926.14 594.04 920.97
  C 597.57 920.20 599.75 919.17 601.53 916.26
  C 608.10 905.55 614.48 894.71 620.67 883.74
  C 620.88 883.37 620.55 882.92 620.13 883.02
  C 619.67 883.12 619.22 883.24 618.79 883.39
  C 618.54 883.47 618.29 883.52 618.03 883.54
  C 596.00 885.31 577.88 885.75 563.68 884.85
  C 553.58 884.22 543.48 883.59 533.38 882.98
  C 531.01 882.84 526.64 882.17 523.26 882.25
  C 522.92 882.26 522.61 882.43 522.42 882.71
  C 511.20 899.05 502.88 912.76 498.78 932.86
  C 498.63 933.56 499.05 934.25 499.74 934.44
  Z"
/>
<path fill="#fefe79" d="
  M 855.41 456.16
  C 856.45 456.79 857.29 457.09 858.36 456.25
  C 871.49 445.95 878.22 432.87 877.79 416.25
  C 877.74 414.12 877.06 410.97 877.42 408.28
  C 877.50 407.66 878.04 407.21 878.66 407.24
  C 887.00 407.67 896.07 404.73 900.69 397.24
  C 903.98 391.93 907.59 385.57 908.07 379.22
  C 908.28 376.45 908.58 370.36 910.54 367.95
  C 910.74 367.71 910.86 367.43 910.89 367.12
  C 911.25 363.95 911.80 360.82 912.53 357.73
  C 912.58 357.52 912.61 357.31 912.60 357.09
  C 912.56 354.76 911.97 353.95 910.83 354.66
  L 911.88 350.99
  C 911.99 350.60 912.17 350.56 912.43 350.88
  C 924.20 365.60 929.53 381.31 931.09 400.18
  C 932.91 422.35 930.86 443.79 924.93 464.50
  C 923.86 468.27 924.35 468.48 926.40 465.14
  C 930.96 457.73 934.96 449.14 938.40 439.39
  C 941.33 437.16 942.90 433.94 943.13 429.75
  C 943.15 429.41 943.30 429.15 943.59 428.98
  C 946.78 427.04 950.29 421.93 951.66 419.44
  C 954.30 414.64 959.05 412.97 959.25 406.75
  C 959.28 405.80 959.99 405.20 961.38 404.93
  C 964.47 413.01 966.00 421.62 965.95 430.76
  C 965.74 471.32 948.44 519.07 918.01 546.88
  C 899.15 564.13 877.66 567.88 852.93 563.83
  C 851.34 563.58 849.83 563.46 848.38 563.49
  C 847.95 563.50 847.84 564.09 848.24 564.25
  C 859.31 568.70 870.82 570.96 882.77 571.02
  C 883.27 571.02 883.33 571.18 882.94 571.50
  C 881.72 572.50 880.72 573.35 879.71 574.53
  C 862.16 595.11 838.22 610.62 814.55 623.03
  C 776.85 642.79 730.95 648.20 689.21 639.25
  C 688.46 639.09 687.99 639.18 687.80 639.52
  C 687.67 639.76 687.78 640.06 688.04 640.15
  C 699.91 644.54 711.35 648.70 722.89 653.91
  C 723.24 654.07 723.26 654.25 722.93 654.46
  C 719.86 656.43 716.55 657.88 713.01 658.82
  C 693.46 664.01 672.13 663.11 652.27 660.33
  C 615.79 655.21 575.36 642.37 550.43 616.32
  C 544.39 610.00 540.00 602.52 537.26 593.88
  C 537.21 593.72 537.05 593.63 536.89 593.66
  C 536.72 593.69 536.61 593.85 536.63 594.01
  C 539.95 626.39 574.49 649.80 601.63 658.75
  C 630.88 668.40 659.73 671.39 690.24 669.53
  C 702.12 668.81 721.34 666.30 729.52 657.31
  C 731.59 655.04 731.79 652.73 730.13 650.38
  C 729.95 650.11 730.02 650.00 730.34 650.03
  C 731.07 650.10 732.01 650.51 732.68 650.48
  C 788.33 647.66 838.58 629.83 877.26 588.49
  C 882.26 583.15 886.70 577.37 890.58 571.16
  C 890.75 570.89 890.99 570.69 891.30 570.56
  C 901.91 566.32 912.17 560.24 922.07 552.32
  C 939.04 538.74 954.56 523.66 968.61 507.08
  C 968.76 506.91 969.04 507.01 969.04 507.23
  C 969.19 516.84 967.46 526.15 963.86 535.16
  C 951.36 566.43 927.66 598.99 896.51 613.89
  C 896.42 613.93 896.38 614.04 896.41 614.13
  C 896.44 614.22 896.54 614.27 896.63 614.25
  C 908.60 611.18 920.13 606.95 931.22 601.56
  C 931.45 601.45 931.53 601.52 931.46 601.76
  C 929.91 607.59 928.33 613.41 926.72 619.24
  C 918.37 649.46 903.14 671.94 884.56 698.05
  C 883.42 696.18 882.16 695.36 879.85 695.68
  C 857.54 698.82 837.61 707.46 820.08 721.59
  C 806.57 732.48 792.59 746.42 779.20 754.72
  C 748.67 773.65 713.81 768.87 679.59 771.79
  C 657.31 773.68 634.59 777.89 611.43 784.41
  C 592.02 789.88 576.23 794.10 564.06 797.07
  C 510.76 810.11 449.25 808.64 398.44 788.06
  C 374.30 778.27 348.66 765.52 329.65 748.35
  C 325.71 744.79 322.49 742.01 319.99 740.02
  C 319.62 739.73 319.47 739.82 319.52 740.28
  C 320.13 745.64 322.73 751.27 324.67 756.29
  C 329.81 769.55 340.01 780.35 350.30 789.27
  C 363.60 800.81 377.56 811.49 392.19 821.31
  C 396.02 823.88 400.66 827.91 406.13 833.42
  C 406.34 833.63 406.42 833.89 406.38 834.18
  L 406.25 835.06
  C 382.20 823.29 359.99 808.91 339.61 791.91
  C 339.78 788.52 338.62 785.66 336.14 783.35
  C 335.57 782.82 335.09 781.74 334.71 780.10
  C 333.77 776.08 328.84 771.86 326.23 768.62
  C 324.05 765.91 320.77 764.36 318.64 762.36
  C 317.05 760.87 315.41 759.42 313.73 758.03
  C 313.50 757.84 313.34 757.57 313.28 757.28
  C 313.19 756.81 312.97 756.42 312.64 756.11
  C 301.48 745.82 294.05 733.73 285.41 719.12
  C 275.81 702.87 268.93 684.60 265.51 666.06
  C 263.23 653.71 264.26 640.09 264.07 628.85
  C 264.07 628.52 263.98 628.23 263.79 627.97
  C 263.55 627.63 263.44 627.14 263.45 626.50
  C 263.56 621.88 263.66 617.26 263.73 612.64
  C 263.77 610.13 262.93 607.68 262.96 605.13
  C 263.05 595.14 263.46 585.15 264.21 575.18
  C 264.49 571.40 265.03 567.21 266.47 563.64
  C 268.88 557.70 269.98 550.34 271.51 545.46
  C 275.19 533.76 279.80 522.43 285.33 511.47
  C 286.65 508.86 287.52 505.86 288.93 502.96
  C 290.56 499.59 290.85 495.85 292.63 492.66
  C 295.34 487.79 298.12 482.97 300.99 478.20
  C 309.95 463.28 316.64 447.30 325.51 432.47
  C 337.20 412.94 347.84 395.97 355.18 373.36
  C 357.40 366.51 360.36 354.06 360.32 345.05
  C 360.32 344.68 360.40 344.34 360.56 344.02
  C 360.99 343.18 361.14 342.28 361.00 341.33
  C 360.88 340.54 361.62 339.89 362.38 340.11
  L 375.83 343.86
  C 375.99 343.90 376.17 343.84 376.27 343.71
  C 376.51 343.38 376.60 342.83 376.53 342.06
  C 379.46 343.27 382.36 343.94 385.23 344.07
  C 385.80 344.10 385.84 343.97 385.35 343.68
  C 373.46 336.55 361.16 330.26 348.45 324.79
  C 348.40 324.01 348.66 323.53 349.24 323.34
  C 349.59 323.23 350.06 323.29 350.64 323.53
  C 364.86 329.48 372.76 334.84 384.05 340.49
  C 393.11 345.02 408.11 343.20 416.68 339.69
  C 427.59 335.22 433.64 322.98 427.07 312.44
  C 417.46 297.04 392.02 292.65 375.52 290.61
  C 371.73 290.14 368.68 293.71 365.34 296.68
  C 359.86 301.57 352.54 304.21 345.75 306.61
  C 345.43 306.72 345.11 306.76 344.78 306.72
  C 343.99 306.64 343.00 306.77 341.81 307.10
  C 339.26 307.82 333.49 308.19 324.49 308.22
  C 324.19 308.22 323.98 308.08 323.87 307.81
  C 323.68 307.36 323.37 306.98 322.94 306.68
  C 336.30 307.23 351.78 304.95 362.37 297.30
  C 375.23 288.01 379.91 271.81 375.93 256.33
  C 371.11 237.56 348.69 240.71 336.68 249.21
  C 328.89 254.72 323.58 258.08 320.75 259.31
  C 314.34 262.09 310.88 247.95 310.26 244.00
  C 307.29 225.11 305.04 196.62 285.90 188.04
  C 276.37 183.78 266.02 185.52 258.07 192.28
  L 257.46 191.52
  C 258.56 190.18 258.54 188.78 257.41 187.31
  C 257.20 187.04 257.12 186.73 257.19 186.39
  C 258.18 181.16 259.10 175.92 259.96 170.67
  C 260.31 168.53 259.88 165.87 261.44 163.38
  C 261.62 163.10 261.73 162.80 261.78 162.48
  C 262.30 158.88 264.49 156.48 265.26 153.25
  C 273.68 117.72 297.95 88.29 326.12 65.64
  C 334.79 58.67 343.90 52.63 352.48 45.38
  C 357.64 41.03 362.75 36.53 368.93 33.69
  C 369.63 33.36 369.81 32.70 369.47 31.70
  C 412.53 16.28 459.94 18.51 498.43 44.31
  C 512.94 54.04 525.04 65.37 534.71 78.28
  C 566.80 121.13 582.71 171.97 578.68 226.25
  C 576.56 254.83 567.87 281.20 552.60 305.35
  C 543.59 319.60 533.43 333.06 524.31 347.26
  C 506.45 375.07 497.62 410.99 505.14 443.71
  C 508.33 457.58 516.45 467.24 529.49 472.69
  C 529.61 472.74 529.75 472.70 529.82 472.59
  C 529.89 472.47 529.87 472.33 529.77 472.24
  C 518.31 461.83 513.13 446.16 512.13 430.91
  C 512.10 430.40 512.29 430.29 512.71 430.58
  C 522.04 436.87 533.30 437.97 544.23 436.10
  C 552.68 434.65 561.16 433.33 569.65 432.14
  C 593.11 428.85 616.33 428.97 639.76 432.72
  C 672.82 438.01 704.15 446.52 733.74 458.27
  C 763.57 470.11 788.81 490.73 815.94 508.22
  C 819.95 510.80 824.25 514.14 828.61 516.99
  C 828.70 517.05 828.83 517.03 828.90 516.95
  C 828.98 516.86 828.97 516.73 828.89 516.65
  C 818.21 505.83 808.00 493.61 796.25 483.94
  C 796.03 483.76 796.10 483.42 796.36 483.33
  C 817.04 476.58 838.68 468.91 855.41 456.16
  Z
  M 395.44 114.44
  C 385.47 127.03 383.13 141.42 388.40 157.61
  C 396.76 183.31 426.65 181.21 443.29 165.87
  C 457.60 152.67 458.82 131.75 447.11 116.16
  C 434.35 99.18 408.95 97.36 395.44 114.44
  Z
  M 760.63 519.78
  C 782.06 536.12 807.01 546.85 833.66 549.25
  C 858.76 551.51 881.60 549.21 904.19 537.57
  C 904.28 537.52 904.32 537.42 904.28 537.33
  C 904.25 537.23 904.15 537.18 904.05 537.21
  C 869.54 546.43 835.19 545.09 801.36 533.56
  C 787.70 528.91 774.26 524.07 761.03 519.06
  C 760.84 518.99 760.62 519.07 760.52 519.25
  C 760.42 519.43 760.47 519.66 760.63 519.78
  Z
  M 666.34 562.20
  C 683.28 573.29 701.49 581.61 720.98 587.17
  C 741.14 592.92 764.63 596.82 786.20 595.40
  C 794.84 594.83 808.92 595.39 817.78 591.39
  C 817.97 591.31 817.93 591.03 817.73 591.00
  C 817.16 590.93 816.66 591.07 816.23 591.43
  C 816.01 591.61 815.76 591.72 815.48 591.75
  C 804.93 593.03 793.91 594.67 783.53 593.97
  C 763.73 592.64 744.45 588.57 725.70 581.76
  C 705.89 574.57 686.02 567.66 666.11 561.04
  C 665.82 560.94 665.57 561.25 665.70 561.52
  C 665.82 561.77 666.03 562.00 666.34 562.20
  Z
  M 545.68 574.40
  C 552.56 596.27 572.33 608.45 593.91 612.11
  C 594.05 612.13 594.18 612.05 594.21 611.92
  C 594.25 611.78 594.18 611.64 594.05 611.59
  C 573.99 603.87 557.70 592.44 546.34 574.09
  C 546.24 573.93 546.04 573.87 545.88 573.95
  C 545.71 574.03 545.62 574.22 545.68 574.40
  Z"
/>
<path fill="#fefefd" d="
  M 369.47 31.70
  C 369.81 32.70 369.63 33.36 368.93 33.69
  C 362.75 36.53 357.64 41.03 352.48 45.38
  C 343.90 52.63 334.79 58.67 326.12 65.64
  C 297.95 88.29 273.68 117.72 265.26 153.25
  C 264.49 156.48 262.30 158.88 261.78 162.48
  C 261.73 162.80 261.62 163.10 261.44 163.38
  C 259.88 165.87 260.31 168.53 259.96 170.67
  C 259.10 175.92 258.18 181.16 257.19 186.39
  C 257.12 186.73 257.20 187.04 257.41 187.31
  C 258.54 188.78 258.56 190.18 257.46 191.52
  L 252.32 191.48
  C 251.90 191.47 251.59 191.65 251.39 192.02
  L 247.59 198.93
  C 247.48 199.13 247.18 199.13 247.08 198.92
  L 246.84 198.45
  C 247.53 195.84 248.86 193.50 250.81 191.45
  C 251.04 191.20 251.15 190.91 251.14 190.57
  C 250.18 160.52 253.89 136.44 269.76 110.76
  C 292.76 73.54 329.17 47.46 369.47 31.70
  Z"
/>
<path fill="#000000" d="
  M 395.44 114.44
  C 408.95 97.36 434.35 99.18 447.11 116.16
  C 458.82 131.75 457.60 152.67 443.29 165.87
  C 426.65 181.21 396.76 183.31 388.40 157.61
  C 383.13 141.42 385.47 127.03 395.44 114.44
  Z
  M 431.8828 131.8430
  C 436.16 130.82 438.77 126.36 437.7030 121.8830
  C 436.64 117.40 432.30 114.60 428.0172 115.6170
  C 423.74 116.64 421.13 121.10 422.1970 125.5770
  C 423.26 130.06 427.60 132.86 431.8828 131.8430
  Z
  M 395.99 123.50
  C 386.21 142.77 391.51 171.01 417.94 171.52
  C 421.45 171.59 425.26 170.63 428.81 169.83
  C 428.90 169.81 428.94 169.73 428.94 169.59
  C 428.93 169.49 428.85 169.42 428.76 169.44
  C 427.23 169.72 425.97 169.87 424.42 169.58
  C 405.00 166.03 395.82 145.54 396.24 127.55
  C 396.26 126.62 396.84 124.64 396.65 123.60
  C 396.53 122.91 396.31 122.87 395.99 123.50
  Z"
/>
<path fill="#fefe79" d="
  M 431.8828 131.8430
  C 427.60 132.86 423.26 130.06 422.1970 125.5770
  C 421.13 121.10 423.74 116.64 428.0172 115.6170
  C 432.30 114.60 436.64 117.40 437.7030 121.8830
  C 438.77 126.36 436.16 130.82 431.8828 131.8430
  Z"
/>
<path fill="#fefefd" d="
  M 396.65 123.60
  C 396.84 124.64 396.26 126.62 396.24 127.55
  C 395.82 145.54 405.00 166.03 424.42 169.58
  C 425.97 169.87 427.23 169.72 428.76 169.44
  C 428.85 169.42 428.93 169.49 428.94 169.59
  C 428.94 169.73 428.90 169.81 428.81 169.83
  C 425.26 170.63 421.45 171.59 417.94 171.52
  C 391.51 171.01 386.21 142.77 395.99 123.50
  C 396.31 122.87 396.53 122.91 396.65 123.60
  Z"
/>
<path fill="#fac000" d="
  M 257.46 191.52
  L 258.07 192.28
  C 254.06 196.67 251.97 201.74 251.79 207.50
  C 251.63 212.33 252.48 212.51 254.35 208.06
  C 257.37 200.83 263.60 194.29 271.67 192.81
  C 288.23 189.79 296.47 210.36 298.83 222.79
  C 301.54 237.02 303.45 250.73 311.66 263.11
  C 311.83 263.36 311.83 263.60 311.66 263.85
  C 303.80 275.25 294.35 283.83 283.31 289.58
  C 256.95 303.31 230.20 317.90 203.23 329.20
  C 179.58 339.11 151.87 343.31 126.32 345.81
  C 124.53 345.99 122.35 346.57 119.77 347.55
  C 121.03 342.57 129.02 336.40 132.34 333.24
  C 142.84 323.25 155.55 315.96 167.03 307.24
  C 185.88 292.89 205.42 278.95 220.71 260.61
  C 231.24 248.00 240.01 234.21 247.03 219.25
  C 247.75 217.73 248.84 217.20 250.29 216.63
  C 250.60 216.50 250.69 216.29 250.54 215.99
  L 250.24 215.39
  C 251.50 214.88 252.22 214.03 252.39 212.83
  C 252.44 212.49 252.31 212.24 252.01 212.08
  C 248.97 210.44 246.58 201.66 246.84 198.45
  L 247.08 198.92
  C 247.18 199.13 247.48 199.13 247.59 198.93
  L 251.39 192.02
  C 251.59 191.65 251.90 191.47 252.32 191.48
  L 257.46 191.52
  Z
  M 271.39 218.04
  L 274.15 231.92
  C 274.21 232.20 274.40 232.43 274.66 232.52
  C 277.60 233.57 279.51 232.61 280.38 229.64
  C 282.03 224.04 280.99 216.86 277.45 212.15
  C 275.43 209.46 271.81 208.74 268.92 210.71
  C 263.47 214.45 259.42 224.45 257.77 230.60
  C 257.69 230.89 257.54 231.14 257.32 231.35
  C 257.01 231.64 256.78 231.96 256.63 232.29
  C 256.44 232.72 256.51 232.76 256.84 232.43
  L 270.94 217.91
  C 271.09 217.76 271.35 217.83 271.39 218.04
  Z"
/>
<path fill="#000000" d="
  M 271.39 218.04
  C 271.35 217.83 271.09 217.76 270.94 217.91
  L 256.84 232.43
  C 256.51 232.76 256.44 232.72 256.63 232.29
  C 256.78 231.96 257.01 231.64 257.32 231.35
  C 257.54 231.14 257.69 230.89 257.77 230.60
  C 259.42 224.45 263.47 214.45 268.92 210.71
  C 271.81 208.74 275.43 209.46 277.45 212.15
  C 280.99 216.86 282.03 224.04 280.38 229.64
  C 279.51 232.61 277.60 233.57 274.66 232.52
  C 274.40 232.43 274.21 232.20 274.15 231.92
  L 271.39 218.04
  Z"
/>
<path fill="#f4fe00" d="
  M 250.24 215.39
  L 250.54 215.99
  C 250.69 216.29 250.60 216.50 250.29 216.63
  C 248.84 217.20 247.75 217.73 247.03 219.25
  C 240.01 234.21 231.24 248.00 220.71 260.61
  C 205.42 278.95 185.88 292.89 167.03 307.24
  C 155.55 315.96 142.84 323.25 132.34 333.24
  C 129.02 336.40 121.03 342.57 119.77 347.55
  C 133.15 348.18 148.04 344.77 161.27 342.58
  C 202.03 335.83 235.52 316.30 275.04 295.77
  C 291.04 287.46 303.72 279.80 313.25 264.50
  C 313.42 264.23 313.65 264.14 313.96 264.25
  L 318.50 265.79
  L 317.79 268.82
  C 317.23 269.05 316.80 269.45 316.49 270.00
  C 305.92 288.93 286.73 301.77 266.38 311.45
  C 244.98 321.63 226.27 330.14 210.24 336.97
  C 196.93 342.64 182.46 347.27 167.63 350.19
  C 150.78 353.52 133.57 356.57 116.39 357.61
  C 106.47 358.21 105.13 349.71 110.44 343.18
  C 112.67 340.43 116.07 337.34 120.64 333.92
  C 150.92 311.26 182.01 290.49 208.92 263.68
  C 223.23 249.41 233.41 235.02 244.52 217.76
  C 245.35 216.47 247.26 215.68 250.24 215.39
  Z"
/>
<path fill="#fefe79" d="
  M 317.79 268.82
  L 318.50 265.79
  C 326.70 264.82 333.48 259.66 339.95 254.96
  C 350.50 247.32 368.30 243.22 369.95 262.06
  C 373.17 298.69 334.32 301.56 308.45 300.40
  C 306.97 300.33 305.87 300.55 304.43 300.96
  C 303.38 301.27 303.32 301.13 304.25 300.55
  C 312.32 295.55 321.65 281.71 320.20 271.77
  C 319.99 270.33 319.19 269.35 317.79 268.82
  Z"
/>
<path fill="#f4fe00" d="
  M 348.45 324.79
  C 331.73 317.75 314.87 311.57 296.96 308.32
  C 296.58 308.25 296.53 308.08 296.81 307.82
  C 298.10 306.63 299.66 306.10 301.51 306.23
  C 308.69 306.73 315.83 306.88 322.94 306.68
  C 323.37 306.98 323.68 307.36 323.87 307.81
  C 323.98 308.08 324.19 308.22 324.49 308.22
  C 333.49 308.19 339.26 307.82 341.81 307.10
  C 343.00 306.77 343.99 306.64 344.78 306.72
  C 345.11 306.76 345.43 306.72 345.75 306.61
  C 352.54 304.21 359.86 301.57 365.34 296.68
  C 368.68 293.71 371.73 290.14 375.52 290.61
  C 392.02 292.65 417.46 297.04 427.07 312.44
  C 433.64 322.98 427.59 335.22 416.68 339.69
  C 408.11 343.20 393.11 345.02 384.05 340.49
  C 372.76 334.84 364.86 329.48 350.64 323.53
  C 350.06 323.29 349.59 323.23 349.24 323.34
  C 348.66 323.53 348.40 324.01 348.45 324.79
  Z"
/>
<path fill="#fefefd" d="
  M 376.53 342.06
  C 376.60 342.83 376.51 343.38 376.27 343.71
  C 376.17 343.84 375.99 343.90 375.83 343.86
  L 362.38 340.11
  C 361.62 339.89 360.88 340.54 361.00 341.33
  C 361.14 342.28 360.99 343.18 360.56 344.02
  C 360.40 344.34 360.32 344.68 360.32 345.05
  C 360.36 354.06 357.40 366.51 355.18 373.36
  C 347.84 395.97 337.20 412.94 325.51 432.47
  C 316.64 447.30 309.95 463.28 300.99 478.20
  C 298.12 482.97 295.34 487.79 292.63 492.66
  C 290.85 495.85 290.56 499.59 288.93 502.96
  C 287.52 505.86 286.65 508.86 285.33 511.47
  C 279.80 522.43 275.19 533.76 271.51 545.46
  C 269.98 550.34 268.88 557.70 266.47 563.64
  C 265.03 567.21 264.49 571.40 264.21 575.18
  C 263.46 585.15 263.05 595.14 262.96 605.13
  C 262.93 607.68 263.77 610.13 263.73 612.64
  C 263.66 617.26 263.56 621.88 263.45 626.50
  C 263.44 627.14 263.55 627.63 263.79 627.97
  C 263.98 628.23 264.07 628.52 264.07 628.85
  C 264.26 640.09 263.23 653.71 265.51 666.06
  C 268.93 684.60 275.81 702.87 285.41 719.12
  C 294.05 733.73 301.48 745.82 312.64 756.11
  C 312.97 756.42 313.19 756.81 313.28 757.28
  C 313.34 757.57 313.50 757.84 313.73 758.03
  C 315.41 759.42 317.05 760.87 318.64 762.36
  C 320.77 764.36 324.05 765.91 326.23 768.62
  C 328.84 771.86 333.77 776.08 334.71 780.10
  C 335.09 781.74 335.57 782.82 336.14 783.35
  C 338.62 785.66 339.78 788.52 339.61 791.91
  C 331.18 784.73 322.87 777.45 314.68 770.07
  C 280.52 739.31 252.88 696.61 251.02 649.18
  C 250.87 645.33 251.14 639.56 251.83 631.85
  C 253.17 616.91 252.57 607.11 251.04 589.69
  C 250.37 582.08 251.15 572.86 253.38 562.02
  C 258.71 536.05 269.72 512.85 286.41 492.40
  C 287.76 490.75 289.74 487.17 290.40 485.09
  C 295.23 470.03 301.03 456.35 307.80 444.06
  C 325.91 411.18 353.79 372.76 346.46 333.70
  C 346.37 333.23 346.81 332.84 347.27 332.98
  L 376.53 342.06
  Z"
/>
<path fill="#fefefd" d="
  M 855.41 456.16
  C 866.49 447.58 872.93 436.36 874.74 422.51
  C 876.36 410.11 874.13 397.99 868.05 386.16
  C 868.01 386.09 868.10 386.01 868.17 386.06
  L 882.42 396.08
  C 882.69 396.27 882.96 396.27 883.23 396.09
  C 897.40 386.62 906.99 371.22 910.83 354.66
  C 911.97 353.95 912.56 354.76 912.60 357.09
  C 912.61 357.31 912.58 357.52 912.53 357.73
  C 911.80 360.82 911.25 363.95 910.89 367.12
  C 910.86 367.43 910.74 367.71 910.54 367.95
  C 908.58 370.36 908.28 376.45 908.07 379.22
  C 907.59 385.57 903.98 391.93 900.69 397.24
  C 896.07 404.73 887.00 407.67 878.66 407.24
  C 878.04 407.21 877.50 407.66 877.42 408.28
  C 877.06 410.97 877.74 414.12 877.79 416.25
  C 878.22 432.87 871.49 445.95 858.36 456.25
  C 857.29 457.09 856.45 456.79 855.41 456.16
  Z"
/>
<path fill="#fefefd" d="
  M 961.38 404.93
  C 959.99 405.20 959.28 405.80 959.25 406.75
  C 959.05 412.97 954.30 414.64 951.66 419.44
  C 950.29 421.93 946.78 427.04 943.59 428.98
  C 943.30 429.15 943.15 429.41 943.13 429.75
  C 942.90 433.94 941.33 437.16 938.40 439.39
  C 943.91 420.90 947.12 402.27 948.02 383.52
  C 948.04 383.23 948.39 383.10 948.59 383.30
  C 954.48 389.27 958.74 396.48 961.38 404.93
  Z"
/>
<path fill="#000000" d="
  M 760.63 519.78
  C 760.47 519.66 760.42 519.43 760.52 519.25
  C 760.62 519.07 760.84 518.99 761.03 519.06
  C 774.26 524.07 787.70 528.91 801.36 533.56
  C 835.19 545.09 869.54 546.43 904.05 537.21
  C 904.15 537.18 904.25 537.23 904.28 537.33
  C 904.32 537.42 904.28 537.52 904.19 537.57
  C 881.60 549.21 858.76 551.51 833.66 549.25
  C 807.01 546.85 782.06 536.12 760.63 519.78
  Z"
/>
<path fill="#000000" d="
  M 666.34 562.20
  C 666.03 562.00 665.82 561.77 665.70 561.52
  C 665.57 561.25 665.82 560.94 666.11 561.04
  C 686.02 567.66 705.89 574.57 725.70 581.76
  C 744.45 588.57 763.73 592.64 783.53 593.97
  C 793.91 594.67 804.93 593.03 815.48 591.75
  C 815.76 591.72 816.01 591.61 816.23 591.43
  C 816.66 591.07 817.16 590.93 817.73 591.00
  C 817.93 591.03 817.97 591.31 817.78 591.39
  C 808.92 595.39 794.84 594.83 786.20 595.40
  C 764.63 596.82 741.14 592.92 720.98 587.17
  C 701.49 581.61 683.28 573.29 666.34 562.20
  Z"
/>
<path fill="#000000" d="
  M 593.91 612.11
  C 572.33 608.45 552.56 596.27 545.68 574.40
  C 545.62 574.22 545.71 574.03 545.88 573.95
  C 546.04 573.87 546.24 573.93 546.34 574.09
  C 557.70 592.44 573.99 603.87 594.05 611.59
  C 594.18 611.64 594.25 611.78 594.21 611.92
  C 594.18 612.05 594.05 612.13 593.91 612.11
  Z"
/>
<path fill="#f4fe00" d="
  M 884.56 698.05
  C 868.30 724.88 850.65 748.70 824.23 766.40
  C 801.62 781.55 777.38 794.09 753.80 807.65
  C 747.45 811.31 742.18 814.99 736.64 819.28
  C 736.44 819.44 736.14 819.30 736.13 819.05
  L 735.52 808.79
  C 735.51 808.59 735.35 808.44 735.16 808.43
  C 734.96 808.41 734.79 808.55 734.75 808.74
  C 732.38 820.99 729.86 833.13 727.20 845.18
  C 726.31 849.19 725.05 854.73 721.50 857.23
  C 708.77 866.19 692.39 869.95 677.43 868.57
  C 669.58 867.84 661.55 866.14 655.32 861.95
  C 650.15 858.47 644.67 853.18 638.89 849.43
  C 629.24 843.18 619.86 836.54 610.76 829.52
  C 610.69 829.46 610.59 829.55 610.64 829.63
  C 617.20 840.89 626.88 849.83 636.46 858.53
  C 637.44 859.42 638.18 860.45 638.69 861.64
  C 638.86 862.02 638.73 862.25 638.32 862.34
  C 616.77 866.97 592.44 868.04 571.00 867.52
  C 545.05 866.89 521.05 865.30 499.00 862.75
  C 467.19 859.06 436.45 850.46 406.25 835.06
  L 406.38 834.18
  C 406.42 833.89 406.34 833.63 406.13 833.42
  C 400.66 827.91 396.02 823.88 392.19 821.31
  C 377.56 811.49 363.60 800.81 350.30 789.27
  C 340.01 780.35 329.81 769.55 324.67 756.29
  C 322.73 751.27 320.13 745.64 319.52 740.28
  C 319.47 739.82 319.62 739.73 319.99 740.02
  C 322.49 742.01 325.71 744.79 329.65 748.35
  C 348.66 765.52 374.30 778.27 398.44 788.06
  C 449.25 808.64 510.76 810.11 564.06 797.07
  C 576.23 794.10 592.02 789.88 611.43 784.41
  C 634.59 777.89 657.31 773.68 679.59 771.79
  C 713.81 768.87 748.67 773.65 779.20 754.72
  C 792.59 746.42 806.57 732.48 820.08 721.59
  C 837.61 707.46 857.54 698.82 879.85 695.68
  C 882.16 695.36 883.42 696.18 884.56 698.05
  Z"
/>
<path fill="#f4fe00" d="
  M 492.25 893.77
  C 491.65 893.82 491.32 893.52 491.25 892.87
  C 491.22 892.54 491.30 892.17 491.51 891.74
  C 493.72 887.22 496.40 882.96 499.53 878.95
  C 500.11 878.21 499.71 877.13 498.79 876.94
  L 459.46 868.83
  C 458.58 868.64 458.14 869.00 458.14 869.90
  C 458.15 888.48 454.76 904.97 450.53 922.51
  C 449.38 927.27 447.37 931.92 444.51 936.47
  C 444.05 936.15 443.60 936.03 443.15 936.10
  C 442.80 936.16 442.78 936.29 443.07 936.48
  C 458.23 946.20 470.87 947.85 489.76 949.50
  C 497.34 950.17 505.10 952.88 513.05 957.63
  C 513.26 957.76 513.25 957.86 513.02 957.93
  C 502.84 961.09 492.91 966.28 483.23 973.49
  C 476.59 978.44 456.68 961.30 451.35 956.11
  C 451.27 956.03 451.19 956.01 451.10 956.05
  C 451.07 956.06 451.04 956.08 451.01 956.09
  C 450.98 956.12 450.99 956.17 451.02 956.21
  C 452.33 957.78 453.57 959.19 454.23 961.21
  C 456.21 967.32 458.66 973.19 461.58 978.82
  C 461.67 978.99 461.63 979.10 461.44 979.15
  C 444.63 983.73 425.19 986.72 407.93 983.32
  C 398.04 981.38 390.62 976.56 385.69 968.87
  C 385.51 968.58 385.26 968.48 384.93 968.57
  C 366.80 973.35 349.99 975.72 332.62 968.49
  C 326.59 965.98 320.73 963.12 315.03 959.90
  C 314.67 959.70 314.64 959.19 314.97 958.95
  C 328.68 948.72 346.13 946.23 362.43 949.34
  C 366.06 950.03 369.17 950.01 371.76 949.28
  C 378.77 947.30 385.57 943.32 393.59 938.43
  C 407.82 929.76 422.37 925.62 439.32 921.86
  C 439.65 921.79 439.89 921.59 440.03 921.28
  C 441.42 918.29 442.42 915.61 443.05 913.26
  C 447.62 896.16 450.05 881.98 453.33 866.53
  C 453.39 866.28 453.63 866.12 453.88 866.17
  L 502.78 876.15
  C 503.02 876.20 503.06 876.32 502.91 876.51
  C 498.82 881.89 495.27 887.64 492.25 893.77
  Z"
/>
<path fill="#fac000" d="
  M 492.25 893.77
  C 485.02 909.57 482.27 924.74 478.82 941.57
  C 478.75 941.90 478.58 942.15 478.30 942.33
  C 471.86 946.47 452.10 939.89 444.51 936.47
  C 447.37 931.92 449.38 927.27 450.53 922.51
  C 454.76 904.97 458.15 888.48 458.14 869.90
  C 458.14 869.00 458.58 868.64 459.46 868.83
  L 498.79 876.94
  C 499.71 877.13 500.11 878.21 499.53 878.95
  C 496.40 882.96 493.72 887.22 491.51 891.74
  C 491.30 892.17 491.22 892.54 491.25 892.87
  C 491.32 893.52 491.65 893.82 492.25 893.77
  Z"
/>
<path fill="#f4fe00" d="
  M 663.25 875.46
  C 663.68 875.97 663.46 876.36 662.59 876.62
  C 662.52 876.64 662.44 876.64 662.36 876.63
  L 654.93 875.32
  C 654.54 875.25 654.16 875.47 654.02 875.84
  C 646.49 896.00 635.12 913.61 619.92 928.68
  L 616.28 930.60
  C 615.95 930.77 615.60 930.41 615.78 930.09
  L 647.48 871.20
  C 647.73 870.74 648.29 870.55 648.76 870.77
  C 653.39 872.93 658.22 874.49 663.25 875.46
  Z"
/>
<path fill="#fac000" d="
  M 663.25 875.46
  C 676.57 877.70 689.83 878.92 703.18 876.11
  C 703.49 876.04 703.54 876.13 703.34 876.38
  C 689.15 893.59 672.35 916.77 667.08 939.52
  C 667.01 939.83 666.82 940.00 666.51 940.04
  L 637.71 943.55
  C 627.49 939.66 621.24 940.18 611.54 940.85
  C 610.85 940.90 610.45 940.09 610.90 939.57
  L 618.46 930.87
  C 619.37 930.31 619.85 929.58 619.92 928.68
  C 635.12 913.61 646.49 896.00 654.02 875.84
  C 654.16 875.47 654.54 875.25 654.93 875.32
  L 662.36 876.63
  C 662.44 876.64 662.52 876.64 662.59 876.62
  C 663.46 876.36 663.68 875.97 663.25 875.46
  Z"
/>
<path fill="#f4fe00" d="
  M 618.46 930.87
  L 610.90 939.57
  C 610.45 940.09 610.85 940.90 611.54 940.85
  C 621.24 940.18 627.49 939.66 637.71 943.55
  C 653.08 945.79 671.00 946.84 691.49 946.71
  C 707.70 946.60 719.91 954.44 728.83 967.53
  C 734.21 975.42 739.02 980.57 745.42 986.15
  C 745.63 986.33 745.55 986.66 745.29 986.73
  C 722.09 992.80 693.90 992.47 674.42 977.56
  C 670.54 974.59 666.75 971.50 663.04 968.31
  C 662.80 968.10 662.45 968.39 662.60 968.67
  L 673.07 988.38
  C 673.61 989.39 673.38 990.17 672.37 990.72
  C 652.14 1001.73 620.31 999.40 602.22 985.44
  C 601.93 985.21 601.67 985.25 601.46 985.55
  C 587.89 1004.28 562.39 1003.41 544.10 993.01
  C 543.07 992.42 540.77 991.72 539.57 991.69
  C 528.46 991.39 517.36 991.09 506.26 990.80
  C 502.87 990.71 499.63 990.23 496.53 989.38
  C 496.16 989.28 496.04 988.81 496.32 988.54
  C 507.09 978.39 521.07 974.47 536.43 972.75
  C 540.04 972.35 546.43 963.80 548.98 960.98
  C 566.75 941.38 588.10 942.74 610.40 933.83
  C 612.91 932.83 615.59 931.84 618.46 930.87
  Z"
/>
</svg>
