<?xml version="1.0" encoding="UTF-8" standalone="no"?>
<svg
   xmlns:dc="http://purl.org/dc/elements/1.1/"
   xmlns:cc="http://creativecommons.org/ns#"
   xmlns:rdf="http://www.w3.org/1999/02/22-rdf-syntax-ns#"
   xmlns:svg="http://www.w3.org/2000/svg"
   xmlns="http://www.w3.org/2000/svg"
   viewBox="0 0 264 74.666664"
   height="74.666664"
   width="264"
   xml:space="preserve"
   id="svg2"
   version="1.1"><metadata
     id="metadata8"><rdf:RDF><cc:Work
         rdf:about=""><dc:format>image/svg+xml</dc:format><dc:type
           rdf:resource="http://purl.org/dc/dcmitype/StillImage" /></cc:Work></rdf:RDF></metadata><defs
     id="defs6" /><g
     transform="matrix(1.3333333,0,0,-1.3333333,0,74.666667)"
     id="g10"><g
       transform="scale(0.1)"
       id="g12"><path
         id="path14"
         style="fill:#4474c4;fill-opacity:1;fill-rule:evenodd;stroke:none"
         d="m 1538.18,557.766 h 242.37 L 1975.92,7.26172 H 1759.28 L 1736.84,88.2539 H 1581.89 L 1559.45,7.26172 H 1381.56 C 1476.1,52.1406 1542.95,158.113 1542.95,280.914 v 0 c 0,60.883 -16.43,117.629 -44.52,164.844 z m -576.504,0 h 314.644 c 129.73,0 235.87,-123.86 235.87,-275.25 v 0 C 1512.19,131.125 1406.05,7.26172 1276.32,7.26172 H 1173.94 1036.69 957.301 V 179.371 c 61.939,36.305 104.369,108.215 104.369,190.52 v 0 c 0,80.359 -40.44,150.797 -99.994,187.875 z m 212.264,-156 V 163.262 h 30.45 c 56.2,0 102.19,53.664 102.19,119.254 v 0 c 0,65.589 -45.99,119.25 -102.19,119.25 z m -639.002,156 h 330.761 c 88.551,0 160.991,-84.539 160.991,-187.875 v 0 c 0,-103.332 -72.44,-187.875 -160.991,-187.875 H 735.938 V 7.26172 h -201 z m 201,-138.746 v -99.758 h 41.597 c 23.504,0 42.735,22.445 42.735,49.879 v 0 c 0,27.433 -19.231,49.879 -42.735,49.879 z M 1698.2,227.758 1659.37,367.91 1620.54,227.758 Z" /><path
         id="path16"
         style="fill:#14a5f4;fill-opacity:1;fill-rule:evenodd;stroke:none"
         d="M 2.02344,557.766 H 220.934 L 2.02344,265.598 Z M 331.656,415.508 V 229.465 h -139.39 z m 0,-346.9416 V 7.26172 H 2.02344 V 68.5664 H 331.656" /></g></g></svg>